<svg id="Layer_1" data-name="Layer 1" xmlns="http://www.w3.org/2000/svg" viewBox="0 0 571 195.83"><defs><style>.cls-1{fill:#fefffb;}.cls-2{fill:#fdaa11;}.cls-3{fill:#fff;}</style></defs><title>sambal-sauyah</title><path class="cls-1" d="M56.72,144.91q.51.12.6,1a6.52,6.52,0,0,1-1.13,4.36l-1,3.67c.19-.36.66-1.14,1.4-2.34s1.47-2.46,2.2-3.78,1.39-2.48,2-3.5a5.44,5.44,0,0,0,.85-1.87l0-.17a4.59,4.59,0,0,0-1.42,1.15l-1.22,1.48-2.37-1.65A85.62,85.62,0,0,1,71,132.52,39.88,39.88,0,0,1,87.9,127a11.64,11.64,0,0,1,4.65.5,6.78,6.78,0,0,1,3.66,2.81l-1.13.62A6.64,6.64,0,0,1,93,132q-1.8.68-3.87,1.38c-1.37.46-2.7.9-4,1.3a16.78,16.78,0,0,1-2.58.67,73.16,73.16,0,0,0-6.13,4.48,39.7,39.7,0,0,0-5.54,5.45,23.34,23.34,0,0,0-3.82,6.48,16.44,16.44,0,0,0-1,7.59,10.55,10.55,0,0,0,2.82,5.69,41.11,41.11,0,0,0,4.61,4.68,66.83,66.83,0,0,0,16.15-3.88A46.89,46.89,0,0,0,103.21,158,31.94,31.94,0,0,0,112.14,146a34.39,34.39,0,0,0,2.18-16.8,20.51,20.51,0,0,0-3-9.17,39.41,39.41,0,0,0-6-7.35,84.91,84.91,0,0,0-7.67-6.53,70.39,70.39,0,0,1-7.68-6.69,39.47,39.47,0,0,1-6.1-7.86,23.64,23.64,0,0,1-3-10,6.61,6.61,0,0,1,0-1.1,9.29,9.29,0,0,0,0-1.28,27.88,27.88,0,0,1,2.19-8.46,76.27,76.27,0,0,1,5.35-11.13,71.36,71.36,0,0,1,6.82-9.91c2.39-2.89,4.61-4.43,6.63-4.62l0,.17,1-.6a10.86,10.86,0,0,1,3.87-4.11,45.08,45.08,0,0,1,6.86-4,64.46,64.46,0,0,1,7.56-3,29.49,29.49,0,0,1,5.74-1.39,13.57,13.57,0,0,1,5.78.83,21.62,21.62,0,0,1,5.73,3,25.22,25.22,0,0,1,4.67,4.5,18.07,18.07,0,0,1,2.93,5l.22.49q0,1.55-1.92,5.89c-1.26,2.9-2.75,5.9-4.44,9a86.17,86.17,0,0,1-5.18,8.4q-2.62,3.73-4,3.86a3.37,3.37,0,0,1,.67-1.08c.45-.61,1-1.29,1.6-2s1.2-1.42,1.76-2,.95-1,1.16-1.3a7.46,7.46,0,0,0-2.36,2.09,29.2,29.2,0,0,0-2,2.57L129.52,73a5.26,5.26,0,0,1-1.93,1.2.72.72,0,0,1-.35-.06.83.83,0,0,0-.34,0,3.61,3.61,0,0,1,.47-1.32,8.08,8.08,0,0,1,.83-1.18l-3.3,3A41,41,0,0,1,127.12,70a14.46,14.46,0,0,0,1.74-4.16l.44-.72a12.91,12.91,0,0,0-1.12,1.72,18,18,0,0,1-1.49,2.26c-.55.74-1.09,1.41-1.6,2a3.5,3.5,0,0,1-1.42,1.16q2.82-6.22,5.31-12.5t4.78-12.61A14.44,14.44,0,0,0,125,51.24a41.63,41.63,0,0,0-6.8,8.29,80.17,80.17,0,0,0-5.3,9.85q-2.33,5.16-4,8.89a3.71,3.71,0,0,1-.89,1.52,3.25,3.25,0,0,1-1.44.91l.54.29a1.1,1.1,0,0,1,.75-.16c.28,0,.39.22.3.57l-.76.92-.4,1.23a11.45,11.45,0,0,1,.36,2c.06.67.13,1.35.19,2A7.22,7.22,0,0,0,110.1,93q2.2,1.68,4.92,3.46a101.55,101.55,0,0,1,9.52,7.2,78.17,78.17,0,0,1,9.29,9.35,62.4,62.4,0,0,1,7.3,10.73,29.34,29.34,0,0,1,3.5,11.16c.13,1.35.2,2.76.23,4.24a15.53,15.53,0,0,1-.47,4.12,40.7,40.7,0,0,1-7.69,16.12,51.93,51.93,0,0,1-12.89,11.59,66.63,66.63,0,0,1-16.08,7.36,86.33,86.33,0,0,1-17.46,3.5,72.5,72.5,0,0,1-12.34,0,42.63,42.63,0,0,1-12.08-2.71,24.42,24.42,0,0,1-9.55-6.6q-3.9-4.41-4.57-11.66a22.15,22.15,0,0,1,.89-8.76,30.65,30.65,0,0,1,3.85-8Zm3.81,6.28a2.3,2.3,0,0,0,.4-1.23,5.24,5.24,0,0,1,.23-1.21,2.3,2.3,0,0,0-.4,1.23A5.36,5.36,0,0,1,60.53,151.19ZM65,149.92l1.44-2.86a9.69,9.69,0,0,0-1.62,2.71Zm3.57-3.73,0-.17A16.14,16.14,0,0,0,66,150.85a18.37,18.37,0,0,0-.42,5.48Zm26.22-86a4.31,4.31,0,0,0,1.91-1.45c.5-.67,1-1.31,1.52-1.93A59.08,59.08,0,0,1,105.17,50q3.72-3.08,7.69-6.16c.53-.39,1.27-1,2.21-1.83a5.29,5.29,0,0,0,1.68-2.11l-1,.26-.78.76q-1.18.11-4.51,2.8t-6.85,6q-3.51,3.3-6.29,6.45t-2.84,4.18C94.7,60.35,94.81,60.29,94.8,60.17Zm4.74-7.59c-.55.17-1.41,1-2.57,2.54s-2,2.59-2.34,3.2a6.69,6.69,0,0,0,1-1c.47-.49,1-1,1.47-1.67s1-1.22,1.44-1.83S99.33,52.83,99.54,52.58Zm11.7-2.28a10.14,10.14,0,0,1-3.2,4.9,16.72,16.72,0,0,0-3.76,4.43c1.86-2,3.69-3.92,5.5-5.79a59,59,0,0,0,5.14-6.09l-1.27,1-1.09,1.12-.2-.32.14-.35-.51,0-.92,1.11Zm-2.92,3.34c.33-.14.57-.56.73-1.26ZM117,59.3a8,8,0,0,1,1.62-2.79A32.11,32.11,0,0,1,121,54.17l2.52-2.28a15.05,15.05,0,0,0,2.15-2.41A27.34,27.34,0,0,0,116,58.8a132.58,132.58,0,0,0-6.46,11.92A10.23,10.23,0,0,0,112,67.09a10.12,10.12,0,0,1,2.39-3.63,5.08,5.08,0,0,1,1.07-2.22A13,13,0,0,1,117,59.3Zm4.94-11a9.68,9.68,0,0,0-2.52,2.19q-1.86,2-3.93,4.45c-1.38,1.66-2.59,3.22-3.65,4.68s-1.56,2.42-1.52,2.86l0,.34q3.52-4.25,5.58-6.81l3.89-4.88A32.4,32.4,0,0,0,122,48.29Zm-4,100.28q-.33,0-1,1.2t-1.47,2.52c-.54.9-1,1.77-1.46,2.6s-.7,1.38-.79,1.61l1-.6c.8-1.1,1.6-2.25,2.4-3.46A8.07,8.07,0,0,0,118,148.57Zm-.88-2.13a10.16,10.16,0,0,0-1,1.54,4.52,4.52,0,0,0-.53,1.67,11.79,11.79,0,0,1,.94-1.79A3.34,3.34,0,0,0,117.11,146.44Zm8.87,3.77a4.11,4.11,0,0,0-.53.82,4.94,4.94,0,0,0-.33,1l.77-.92ZM131.68,67a2.18,2.18,0,0,0-.91,1.1h.16a.35.35,0,0,0,.25-.11.35.35,0,0,1,.25-.11Zm4.23,80.29q-1,2.13-2.16,4.2t-2.16,4.2a3.48,3.48,0,0,0,1.41-1.32,18.64,18.64,0,0,0,1.39-2.43c.43-.89.8-1.75,1.12-2.57A4.78,4.78,0,0,0,135.91,147.25Zm5.21-2.53q-2.49,4.32-5,8.46a56.66,56.66,0,0,0-4.29,8.74c.61-.73,1.47-1.83,2.59-3.3s2.18-3,3.22-4.73a40.59,40.59,0,0,0,2.6-4.92,8.31,8.31,0,0,0,.92-3.91ZM135.4,70.36a4.89,4.89,0,0,1,.65-1.26c.45-.72.92-1.44,1.42-2.17l1.42-2.09c.45-.66.78-1,1-1a2.62,2.62,0,0,1-.56,1.24c-.4.61-.85,1.28-1.35,2s-1,1.4-1.51,2S135.61,70.11,135.4,70.36ZM140.06,49l.55.46.32-.2-.21-.49Zm3.61,88.34a9.11,9.11,0,0,0-1.47,3.37,24.87,24.87,0,0,1-.95,3.5l0,.33c.78-.07,1.35-.66,1.7-1.77s.62-2,.79-2.54a7.42,7.42,0,0,1,.27-2.58Zm-.47-3.19.41.65,0-1.37Z"/><path class="cls-1" d="M150.64,139.07c-.1-1.12-.18-2.25-.23-3.39a12,12,0,0,1,.29-3.25q1.92-8.7,3.73-16.69a50.63,50.63,0,0,1,6.7-15.77A64.62,64.62,0,0,1,167,92.19a54.92,54.92,0,0,1,7.19-6.88,43.07,43.07,0,0,1,8.37-5.21,27.83,27.83,0,0,1,9.38-2.57q6.07-.57,9.64,2.08a32.78,32.78,0,0,1,6.89,7.28A20.69,20.69,0,0,0,211,84.7c.93-.94,1.93-1.85,3-2.75a30.23,30.23,0,0,1,3.1-2.33,6.53,6.53,0,0,1,2.88-1.12c.44,0,.68,0,.69.11a1.78,1.78,0,0,1-.25,1,1.81,1.81,0,0,0-.27.71c0,.11,0,.16.1.16s.09,0,.1.16a3.9,3.9,0,0,1,1.47-.65,10.84,10.84,0,0,1,1.67-.32,3.59,3.59,0,0,0-.37.63,1.48,1.48,0,0,0-.19.61c0,.23.08.33.2.32a.34.34,0,0,0,.24-.1.35.35,0,0,1,.25-.11l1.75.52.48,1.48c-.43,1.52-.92,3-1.47,4.39l-1.65,4.24.62-.73a92.85,92.85,0,0,1-3.42,12.65q-2.42,7.13-4.78,14.49t-4,14.25a37.13,37.13,0,0,0-1.19,11.94,5.39,5.39,0,0,0,.76,2.65,10.15,10.15,0,0,0,1.14,1.34,9.63,9.63,0,0,0,1.11.92,1.78,1.78,0,0,1,.64,1.39,9.67,9.67,0,0,1-5,3.35,29,29,0,0,1-6,1.24,8.86,8.86,0,0,1-5.54-1,10.94,10.94,0,0,1-3.57-3.59,15.7,15.7,0,0,1-2-5.09,46.78,46.78,0,0,1-.86-5.53c-.08-.9-.16-1.72-.22-2.45a19.3,19.3,0,0,1-.06-2.46c-1.23,1.47-2.62,3.25-4.19,5.32s-3.25,4.13-5,6.17a38.56,38.56,0,0,1-5.64,5.29,11.44,11.44,0,0,1-5.81,2.5,45.52,45.52,0,0,1-6,.22,11.59,11.59,0,0,1-4.44-1,13.39,13.39,0,0,1-3.74-2.71,32.75,32.75,0,0,1-3.75-4.67c-.23-1.23-.43-2.4-.59-3.53S150.76,140.31,150.64,139.07Zm14.14-34.68-.84.08-.16.19Zm.67-1.93-.29.54.37.3.47-.38Zm1,28.84.21.49.3-.53-.2-.33Zm1.78,6.31a8.49,8.49,0,0,0,1.69-3.74c.31-1.5.64-2.89,1-4.17l-2.74,5.36ZM186.05,84.2a10.76,10.76,0,0,0-4.76,1.89,43.5,43.5,0,0,0-5.08,4,47.66,47.66,0,0,0-4.58,4.77,31.68,31.68,0,0,0-3.09,4.29,6.78,6.78,0,0,0,1.58-1.34l2.33-2.43,2.48-2.61a15.85,15.85,0,0,1,2-1.9l2.09-1.3c1-.6,1.93-1.22,2.89-1.88s1.83-1.31,2.62-2A6,6,0,0,0,186.05,84.2ZM200.3,94.62a13.43,13.43,0,0,0-8.44,4.45,59.87,59.87,0,0,0-7.3,9.36q-3.42,5.34-6.32,10.71a61.68,61.68,0,0,1-5.5,8.68c-.25.94-.6,2-1.06,3.25s-.9,2.53-1.34,3.87-.83,2.63-1.17,3.85a8.57,8.57,0,0,0-.4,3V142q1.51-.31,4.63-3.33a86,86,0,0,0,6.87-7.61q3.74-4.6,7.66-10.08t7.1-10.61q3.17-5.14,5.19-9.17c1.34-2.67,2-4.57,1.85-5.7-.05-.56-.28-.85-.68-.87A8,8,0,0,0,200.3,94.62ZM173.91,91c-.31.26-.91.85-1.79,1.78s-1.31,1.51-1.29,1.74Zm23.93,2.88a36.4,36.4,0,0,0-8.68,5.49,41.57,41.57,0,0,0-6.42,7,56.1,56.1,0,0,0-4.94,8.2q-2.15,4.38-4.25,9.16a31.57,31.57,0,0,0,1.79-3.65,29.43,29.43,0,0,1,1.79-3.66,70.24,70.24,0,0,1,4.58-7.4,38.29,38.29,0,0,1,4.46-5.18q2.34-2.26,5.11-4.48T197.84,93.83Zm-22.45,7.53a7.87,7.87,0,0,0,1.74-1.43l2.65-2.63c.93-.94,1.81-1.85,2.64-2.72s1.5-1.55,2-2.06a22,22,0,0,0-4.91,4Q177.37,98.79,175.39,101.36Zm.35,38.61c.34,0,1-.61,2.06-1.72s2.2-2.51,3.53-4.16,2.74-3.43,4.27-5.33,2.88-3.73,4.08-5.49,2.22-3.27,3.07-4.54a8.83,8.83,0,0,0,1.38-2.6l-.19-.15q-1.86,1.88-4.31,4.91t-4.93,6.5c-1.65,2.31-3.29,4.59-4.89,6.84S176.85,138.39,175.74,140Zm1-29.54a3.61,3.61,0,0,0,.78-.84c.2-.3.39-.63.59-1a37.71,37.71,0,0,1,7.19-7.82,45.19,45.19,0,0,0,7.37-7.66,9.1,9.1,0,0,0-4.19,2.52,51.77,51.77,0,0,0-4.65,4.94c-1.53,1.84-3,3.68-4.26,5.5A44,44,0,0,0,176.74,110.43Zm13.55,23.08a6.38,6.38,0,0,0-1.23,1.39c-.71.92-1.49,2-2.35,3.11s-1.71,2.35-2.56,3.56-1.53,2.13-2,2.74c1.43-1.72,2.79-3.46,4.11-5.23S188.88,135.46,190.29,133.51Zm.24-2.92a17,17,0,0,0-2.74,3.49c-.78,1.33-1.58,2.53-2.38,3.63.3-.37.74-.86,1.31-1.48s1.12-1.3,1.68-2a22.21,22.21,0,0,0,1.42-2.09A6.09,6.09,0,0,0,190.53,130.59Zm.36-5.3-.64.4-.14.35.52.12.63-.57Zm3.52,5a1.38,1.38,0,0,0,.25.82Zm2.44-5c-.43,1.52-.78,3-1,4.44a35.7,35.7,0,0,0-.51,4.56,13.43,13.43,0,0,0,1.2-4.46,41.27,41.27,0,0,1,.68-4.57Zm.76-2.79-.46.55-.12.52Zm11.46-15.88q-1.26,3-2.73,7.32t-2.83,9a85.74,85.74,0,0,0-2.13,9,28.66,28.66,0,0,0-.5,7.46l.08.84a5.81,5.81,0,0,0,.39-2.16,11.84,11.84,0,0,1,.21-2.32,71.33,71.33,0,0,1,3-14.75Q206.83,113.59,209.07,106.57Zm-5-6.34a9,9,0,0,0-.82,1.19,2.11,2.11,0,0,0-.31,1.3l.9-1.27Zm2.22-1.74q-.33,0-.84,1c-.34.65-.67,1.34-1,2s-.63,1.42-.91,2.13L203,105.1c.5-.73,1.16-1.84,2-3.34A9.52,9.52,0,0,0,206.27,98.49Zm-.32,46A163.53,163.53,0,0,1,209,127.77q2-8.26,4.07-16.63-2.64,8.25-4.69,16.43A85.76,85.76,0,0,0,206,144.48Zm2.53-.23a180,180,0,0,1,6.31-26.46q4.16-13,7.87-26.1-1.5,4.07-4.15,11.2t-5.09,14.77q-2.44,7.64-4.09,14.68a37,37,0,0,0-1.26,11.09l.09,1ZM209.94,105a5.47,5.47,0,0,0,.47-1.32,4.67,4.67,0,0,0,.12-1.46l-.7,1.6Zm8.39-23.25a5.06,5.06,0,0,0-2.16,1.48A26.58,26.58,0,0,0,213.88,86a35.35,35.35,0,0,0-2.09,3.17,20.54,20.54,0,0,1-1.57,2.36l.84-.08c1.22-1.59,2.49-3.15,3.82-4.7A27.79,27.79,0,0,0,218.33,81.71Zm-6.5,18a4.78,4.78,0,0,0,.94-1.79,20.33,20.33,0,0,0,.74-2.11l0-.34c-.79.07-1.25.66-1.37,1.75S211.89,99.11,211.83,99.68Zm3.35,5-.54,1.42.47-.39Zm4-18.76c-.23,0-.54.37-.93,1s-.8,1.41-1.24,2.24-.84,1.64-1.22,2.41-.67,1.34-.86,1.7a14.35,14.35,0,0,0,1.12-1.64c.45-.72.89-1.47,1.33-2.25s.82-1.49,1.16-2.15S219.14,86.12,219.23,85.88Zm-3.51,17.18-.44.72.2.33.27-.71Zm9.53-20.12a6.88,6.88,0,0,0-1.66,2.28A26.7,26.7,0,0,0,222.15,88,37.26,37.26,0,0,0,225.25,82.94Zm.39,2.35c-.18.47-.49,1.41-.93,2.81s-.88,2.12-1.33,2.17Z"/><path class="cls-1" d="M258.15,110.86q-1.18,2-2.37,3.88t-2.19,3.87l.15-.19a5.34,5.34,0,0,0-1.06,3.17l-.54-.29c-.19.47-.34.91-.48,1.31a7.09,7.09,0,0,0-.28,1.48l-1.24,1.31a13.36,13.36,0,0,1-1.19,2.83c-.63,1.19-1.33,2.45-2.12,3.77s-1.6,2.59-2.45,3.8a33,33,0,0,0-1.86,2.9l-1,.6.59.8a21.85,21.85,0,0,1-3.25,4.38c-1.4,1.5-2.72,2.81-4,4a.72.72,0,0,0-.33.11.7.7,0,0,1-.33.12,9.47,9.47,0,0,1-2.12,0,3.94,3.94,0,0,0-1.11-.07,2.63,2.63,0,0,0-1.15.45,14.09,14.09,0,0,0-1.9,1.54l0-1.37a56.81,56.81,0,0,1,1.47-11.63q1.44-6.51,3.05-13t2.88-12.1a30.29,30.29,0,0,0,1-8.85c-.08.34-.38,1.42-.89,3.23s-1.07,3.76-1.67,5.86-1.18,4.08-1.74,5.94-.94,3-1.12,3.51l-.2-.32a24.87,24.87,0,0,1,1.88-9,43,43,0,0,0,2.58-8.92c-.32.26-.76,1.35-1.32,3.28s-1.13,4-1.71,6.28-1.09,4.42-1.53,6.44a16.74,16.74,0,0,0-.57,3.89l0,.33.4-1.23.32-.2a18.34,18.34,0,0,1-.35,3.61,17.76,17.76,0,0,0-.34,3.61l-1.21,1.64.35.14a6.59,6.59,0,0,1-.18,2.65c-.26,1.45-.57,3-.93,4.6s-.73,3.19-1.1,4.7a22.77,22.77,0,0,0-.63,3.29,8.22,8.22,0,0,0-.3,1.31c-.11.63-.28,1-.51,1s-.57-.35-.7-1.13-.2-1.28-.22-1.51a50.42,50.42,0,0,1,.45-8.81q.71-6.27,2.08-14.32t3.11-16.88q1.72-8.85,3.66-16.43t3.89-13.13q1.95-5.53,3.52-7,.51.12.6,1a10.14,10.14,0,0,1-.12,2.39A5.79,5.79,0,0,0,243,72.1l.89-1.44a3.05,3.05,0,0,1,1.81.26,6.13,6.13,0,0,0,1.67.61c1.12,1,1.95,1.77,2.51,2.23a7.15,7.15,0,0,1,1.32,1.41,10.72,10.72,0,0,1,.92,1.7c.29.66.67,1.7,1.14,3.13l-.13.35q.28,1.34.48,2.43c.12.72.23,1.54.31,2.44a47.08,47.08,0,0,1,.19,5.68,45.34,45.34,0,0,0,.19,5.69l.65-2.11a7.13,7.13,0,0,1,0,3,28.87,28.87,0,0,0-.5,2.85,36.43,36.43,0,0,0,5.91-6.93q3.22-4.63,6.61-9.46a73.27,73.27,0,0,1,7-8.56q3.57-3.73,6.94-4a1.8,1.8,0,0,1,1.4.38,21.31,21.31,0,0,1,7.87,4.12,10.77,10.77,0,0,1,4.12,7.7,19.2,19.2,0,0,1-.15,4.78,19.19,19.19,0,0,0-.15,4.78l0,.34a10.61,10.61,0,0,0,.56-4.06,10.58,10.58,0,0,1,.56-4,18.76,18.76,0,0,1,.28,4c0,1.42-.05,2.75-.05,4,1.22-1.59,2.75-3.63,4.62-6.13A93.47,93.47,0,0,1,306,79.86a52.52,52.52,0,0,1,6.66-6.15,13.06,13.06,0,0,1,6.62-2.91,7.87,7.87,0,0,1,4.45,1.12,17.24,17.24,0,0,1,4.4,3.42,26.07,26.07,0,0,1,3.39,4.45,10.38,10.38,0,0,1,1.6,4.36,18.82,18.82,0,0,1-.83,7.57,18.34,18.34,0,0,0-.84,7.39l.17,1.86a9.12,9.12,0,0,0,.89-3.23,15.21,15.21,0,0,1,.71-3.39q.41,2.52-1,8.27t-3.45,12.32q-2,6.57-4.1,12.64t-3,9l-.92,1.11-1.21,3.51-.37-.3q1.77-6.63,3.8-13.21t4-13.22a53,53,0,0,0-2.61,7.57c-.72,2.68-1.44,5.35-2.15,8a81.8,81.8,0,0,1-2.51,7.81,33.49,33.49,0,0,1-3.53,6.88,7.55,7.55,0,0,1-.6,2.69,11.57,11.57,0,0,0-.77,2.71L314,151a6.33,6.33,0,0,0-3.6,3.4,28.62,28.62,0,0,1-2.57-2.06,4.42,4.42,0,0,1-1.48-3l-.08-.84a15,15,0,0,1-2.83-4.85,22.84,22.84,0,0,1-1.19-5.5,49.36,49.36,0,0,1,.36-11.7,107.51,107.51,0,0,1,2.51-12.31q1.64-6.19,3.72-12.18c1.39-4,2.66-7.74,3.81-11.25a69.37,69.37,0,0,0-6.13,9.17,32.81,32.81,0,0,1-6.86,8.55c0-.68.69-2,1.94-3.84s2.67-3.91,4.28-6.1,3.15-4.29,4.61-6.3,2.48-3.49,3.07-4.46q-1,.27-3.21,3a71,71,0,0,0-4.87,7.09q-2.65,4.33-5.68,9.38t-5.65,9.71c-1.75,3.12-3.28,5.92-4.58,8.43s-2.13,4.23-2.5,5.17l1.4-1.49a18.22,18.22,0,0,1-.88,1.61,6.63,6.63,0,0,0-.7,1.6l-.23-.66.26-.88L285,134.41l-.71-.28-1.08-.58-.44.73.89.42.42.82-1.41,1.32-.46.55.34,0,.72.44a11.23,11.23,0,0,0-2.11,2.07,22.16,22.16,0,0,1-1.92,2.22l0,.17c-.3.48-.81,1.41-1.53,2.78A7.31,7.31,0,0,1,276,147.5l-7,1.17-1,.09a15.78,15.78,0,0,1-.39-2.35c-.07-.79-.15-1.57-.22-2.36a10.78,10.78,0,0,0-.69,1.77c-.17.58-.35,1.16-.52,1.75-.35-.08-.63-.4-.85-.95a9.62,9.62,0,0,1-.52-1.9c-.12-.73-.25-1.43-.36-2.1s-.2-1.17-.23-1.51a56.77,56.77,0,0,1,.22-12.28q.78-6.2,2.16-12.45t3.1-12.46c1.15-4.13,2.17-8.12,3.06-11.94a3.47,3.47,0,0,0-.85.93,15.54,15.54,0,0,1-1.22,1.47c-.47.5-.91.94-1.33,1.32a2.65,2.65,0,0,1-.79.58l-.17,0,.12-.53-.92,1.11.18.15h.17a2,2,0,0,1-.43.81c-.3.42-.66.88-1.07,1.37s-.78,1-1.14,1.47-.58.79-.68.91a4.39,4.39,0,0,0-1.49,1.33,5.64,5.64,0,0,0-.94,1.79l.4.65-.81.41-2.56,3.64,2.27-3.1c-.71,1-1.41,2-2.11,3a20,20,0,0,0-1.75,3.14Zm-28,17.41-.54-.29-.43.9.22.49Zm-.53-2,.22.49.07-1Zm7.93-2.61c.35-1,.85-2.49,1.47-4.3s1.24-3.75,1.85-5.79,1.13-4,1.59-5.77a21.5,21.5,0,0,0,.73-4.07,19.22,19.22,0,0,0-1.3,3.44q-.85,2.73-1.75,5.95t-1.63,6.28C238,121.44,237.7,122.87,237.55,123.67Zm11.74-20.15c-.17.58-.51,1.52-1,2.81s-1,2.65-1.5,4.06-.91,2.75-1.24,4a9.9,9.9,0,0,0-.46,2.42l0,.34c.44,0,.9-.68,1.35-1.91s.89-2.64,1.31-4.21.76-3.08,1-4.52S249.23,104.09,249.29,103.52Zm.87,9.28-1.14.61a35.66,35.66,0,0,0-1.45,4.56Zm.77-6.37c.44,0,.83-.5,1.14-1.39a16.38,16.38,0,0,0,.75-3c.18-1.09.34-2.16.47-3.19s.23-1.78.3-2.24Zm1.29,12.13-.59.91.2.32Zm1-11q5.14-6.94,10.89-13.86a97,97,0,0,0,10-14.46c-.72.75-1.73,1.84-3,3.26s-2.7,3-4.24,4.82-3.12,3.7-4.74,5.72-3.09,4-4.39,5.85-2.4,3.57-3.28,5.07a8.73,8.73,0,0,0-1.38,3.45Zm.5,10.85,1.47-2.52a9.72,9.72,0,0,1-.64,1.34A8.93,8.93,0,0,1,253.74,118.42Zm.9-25.1L255,93l.21.49-.13.35Zm.38-1.4-.23-.66.34,0,.4.64Zm.19,24q.45-.72.81-1.35a10.27,10.27,0,0,1,1-1.37Zm1.84-5.78-.78.75-.12.52.63-.57Zm7.28-7.83-.58,1.07-.51,0,.43-.89Zm.29-.54-.17,0,.15-.19Zm1.44-2.86-1,1.8.92-1.11Zm1.4,42.6a10.06,10.06,0,0,0,.67-2.87c.08-1,.13-2,.15-3a4.34,4.34,0,0,0-.7,2.53,12.52,12.52,0,0,1-.35,2.67Zm11.29-26.92-1.28,4.54c-.6,2.1-1.22,4.28-1.86,6.56s-1.21,4.39-1.71,6.37a16.42,16.42,0,0,0-.68,3.64l0,.33a25.75,25.75,0,0,0,1.12-3.51q.83-3,1.68-6.62c.57-2.44,1.12-4.75,1.65-7S278.58,115.26,278.75,114.57Zm5.45,3.74a22.23,22.23,0,0,0-1.86,3.84A24.07,24.07,0,0,0,281,126.1a21.64,21.64,0,0,0,1.85-3.92C283.3,120.89,283.75,119.61,284.2,118.31Zm7.53-1.38a19.38,19.38,0,0,1-3.28,6.86,17.4,17.4,0,0,0-3.1,6.84c.88-1.44,2-3.36,3.46-5.77s2.89-4.92,4.4-7.55,2.9-5.18,4.15-7.62,2.15-4.31,2.71-5.62a6.1,6.1,0,0,0-1.93,2.14,41.18,41.18,0,0,0-2.19,3.86c-.72,1.43-1.45,2.81-2.18,4.12A9.31,9.31,0,0,1,291.73,116.93Zm-2.07-7.63c.23,0,.4-.3.52-.82a5.47,5.47,0,0,1,.47-1.32l-1.16,2.15Zm1.95,13.6-.42,1.06-.47.39Zm.59-12,.82-.24-.4-.65-.32.2-.29.54Zm1.2,9.25-.45.73,0-.34.28-.71ZM293,95.71l.37.31.31-.37-.05-.51Zm2.84,8.59a5,5,0,0,0-1.43,1.92,4.46,4.46,0,0,0-.55,2.35c.45,0,.85-.65,1.19-1.82S295.65,104.77,295.83,104.3Zm16.6-26.57c-.66.18-1.83,1.14-3.48,2.88s-3.4,3.69-5.24,5.85-3.53,4.21-5,6.17a22.16,22.16,0,0,0-2.69,4l-2.09,5,.19.15a3.14,3.14,0,0,0,1.25-1.14A6.26,6.26,0,0,0,296,99a18.84,18.84,0,0,1,3.21-5.83,64.35,64.35,0,0,1,4.54-5.1q2.42-2.43,4.73-4.95A28.12,28.12,0,0,0,312.43,77.73Zm-16.9,38a4.55,4.55,0,0,1-1,2.13l.08-1Zm-.1-6.63-.14.35.39.48.12-.52Zm1.86-7.49a.69.69,0,0,0-.42.12c-.05.07-.19.1-.41.13l-.21,1.38,0,.34a5.16,5.16,0,0,1,.83-1.11,11.9,11.9,0,0,1,1-.94Zm.29,10.52a5.08,5.08,0,0,1,.64-1.42c.25-.36.52-.78.82-1.26A4.29,4.29,0,0,1,297.58,112.13Zm3.94-10.74c1.12-1.36,2.19-2.73,3.19-4.13a27,27,0,0,0,2.64-4.59,46,46,0,0,0-3.1,4.21Q302.84,99.06,301.52,101.39Zm5,43.27-1.21-.23-.83.25Zm-.06-2.55a2.07,2.07,0,0,1,1.05-1.46l-.89-.42a3.74,3.74,0,0,1-1.39,1.49.78.78,0,0,1,.61.2A.8.8,0,0,0,306.5,142.11Zm-.56,3.12-.49.22.89.42.32-.2Zm1.82-2.38-.36-.14a.5.5,0,0,0-.32.2l.19.15Zm.15-9.38-.37-.3-.32.2.57.62Zm-.07-8-.3.37.23.66.31-.37ZM311,144.76l.78-.75-.37-.31-.78.75Zm-.14-7,.37.31.31-.37-.37-.3ZM312,149.94l.15-.18a1.71,1.71,0,0,0-.43-1.07,2.7,2.7,0,0,1-.61-1l-.12.52Zm-.53-3.86-.44.72.37.31.27-.71Zm.66-9.42,0,.33.55-1.41Zm1.09-4.7c-.33,0-.56.31-.69.83a4.24,4.24,0,0,0-.13,1.29.67.67,0,0,0,.4.64l.08-1,.58-1.07Zm3,4.66a8.44,8.44,0,0,1-.09,1.79c-.1.75-.23,1.53-.38,2.34a12.42,12.42,0,0,1-.64,2.27,2,2,0,0,1-1.07,1.29l-.15.18.23.66a11.78,11.78,0,0,0-.36,1.65q-.09.78-1.11.87a1.57,1.57,0,0,0,.42.81,1,1,0,0,0,.89.43.54.54,0,0,0,.47-.38c.09-.24.19-.47.28-.71a14.91,14.91,0,0,1,1-3.15c.43-.95.87-1.9,1.35-2.85a9.86,9.86,0,0,1,.19-2.57c.18-1,.42-2.14.71-3.3s.59-2.3.88-3.4.52-2.07.67-2.88a18.17,18.17,0,0,0-1.72,3.48A26.2,26.2,0,0,1,316.2,136.62Zm1.86,7.14.2.33-.29.53-.22-.49Zm1.5-14.95c.22,0,.48-.64.76-1.85a9.86,9.86,0,0,0,.38-2.33Zm9.58-19.61.81-.41-.72-.45a1.7,1.7,0,0,1,.45-.64,5.53,5.53,0,0,0,.62-.65l-.7-.27a.7.7,0,0,0-.55.47,4.57,4.57,0,0,1-.52.82Zm1-5.88a6.57,6.57,0,0,0,0,1.87l.06.68.46-.55a5.81,5.81,0,0,0,0-1.71l-.06-.67ZM333.4,92.8l.56.46-.78.76-.22-.49Zm.48-2.25.09,1c0,.45-.05.69-.28.71l-.23-.66.34-1.91Z"/><path class="cls-1" d="M387.83,125.36q1.34-.28,3.21-3t3.87-6q2-3.24,4-6.24a15.45,15.45,0,0,1,3.46-4,77,77,0,0,1-6.27,11.3,65,65,0,0,1-8.49,10.33A45.23,45.23,0,0,1,377,135.56a32.92,32.92,0,0,1-12.42,3.71,31.68,31.68,0,0,1-9.59-.56c-3.12-.67-6.3-1.2-9.51-1.59l-.55-.45-.45-1.15a9,9,0,0,0-1.26,2,16,16,0,0,1-1.09,2l-.74-.61a9.6,9.6,0,0,1-.37-2.18,18.87,18.87,0,0,1-.1-1.95,7.78,7.78,0,0,0-.26-1.93,9.31,9.31,0,0,0-1,3.84l-.81.41a1.35,1.35,0,0,1-.8-1.28c-.06-.68-.11-1.13-.13-1.36a19.65,19.65,0,0,0-1.07-5.17,14.26,14.26,0,0,1-1-4,2.94,2.94,0,0,1,.5-1.92,3.83,3.83,0,0,1,1.41-1.32q1.2-7.26,2.07-14.4a125.41,125.41,0,0,1,2.58-14.29c.51-1.86,1.35-4.74,2.52-8.66s2.49-8.23,4-13,3-9.7,4.66-14.9,3.07-10,4.36-14.45,2.35-8.25,3.19-11.45a23.85,23.85,0,0,0,1.12-6.31,3.78,3.78,0,0,0-.51-1.83,3.64,3.64,0,0,0-.68-1.81c-.46-.07-.73-.5-.8-1.29s.38-1.33,1.34-2a5.52,5.52,0,0,1,2.29-1.07,7.61,7.61,0,0,1,5.36,1.8,22.84,22.84,0,0,1,4.72,5,31.51,31.51,0,0,1,3.39,6.32A21.81,21.81,0,0,1,379,35.46a9.69,9.69,0,0,1-.17,1.89q-.21,1.38-.57,3c-.23,1.1-.48,2.12-.74,3s-.42,1.57-.5,1.92l0,.34c.23,0,.32.05.28.23a1.87,1.87,0,0,0,0,.59c-.14.93-.31,1.88-.5,2.86s-.35,2-.48,3l.67-.06.75-3,.76-.93a27.45,27.45,0,0,1-1.28,8.21,63.34,63.34,0,0,0-1.95,8.27A20.81,20.81,0,0,0,379,62.19q1.65-1.52,3.39-3a24.64,24.64,0,0,1,3.76-2.56,11.51,11.51,0,0,1,4.56-1.36,10.57,10.57,0,0,1,2.64.09c.87.15,1.76.35,2.7.6,1.6,1.45,3.15,2.83,4.64,4.17a36.38,36.38,0,0,1,4,4.14,19.55,19.55,0,0,1,2.82,4.76,21,21,0,0,1,1.43,6.17c.08.9.13,1.74.15,2.54s0,1.64,0,2.55l.4.64a9.76,9.76,0,0,0-1.17,3c-.56,1.87-1.14,3.91-1.72,6.11s-1.14,4.31-1.63,6.28a19.28,19.28,0,0,0-.71,3.47l.07.68A20.68,20.68,0,0,0,406,94.74a27.78,27.78,0,0,1,1.58-5.94.65.65,0,0,0,.11.33.74.74,0,0,1,.12.33,7.68,7.68,0,0,1-.24,2.07c-.19.92-.45,1.88-.75,2.88s-.65,1.93-1,2.81-.65,1.57-.84,2l0,.33L402.54,106l-.52-.12-.42-.81-.18-.15-2.7,4q-2.09,3.09-4.49,6.55c-1.61,2.3-3.05,4.45-4.34,6.44A22.82,22.82,0,0,0,387.83,125.36Zm-45.15-4.14-.35-2-.33.2a3.27,3.27,0,0,1-.51,1.75l.7.28.11,1.18Zm-.41-4.39a3.76,3.76,0,0,0,1.55-2.61,17.61,17.61,0,0,0,0-3.15,17.05,17.05,0,0,1-1.89,5.29Zm4.26-18.27-.2-.32-.47.39v.16l.21.33Zm3.51,12.1a13.71,13.71,0,0,0,1.52-3.8,37.05,37.05,0,0,0,1-4.09,40.13,40.13,0,0,0-1.42,4A39.47,39.47,0,0,0,350,110.66Zm2.74-36.51.1-.69-.2-.32-.1.69Zm3.32,50.42q2.28-1.06,4.55-2.3a45.64,45.64,0,0,0,4.51-2.8,25.7,25.7,0,0,0,5.31-5.09c1.94-2.33,3.93-5,6-8s4-6.25,6-9.67,3.69-6.75,5.2-10a66,66,0,0,0,3.5-9.09,19.64,19.64,0,0,0,1-7.07,3.89,3.89,0,0,0-.16-.75.52.52,0,0,0-.63-.37,6.71,6.71,0,0,0-1.81.68c-.87.42-1.52.77-1.94,1l0-.34L388,70q-2.37.23-5.07,3.19a62.56,62.56,0,0,0-5.25,6.71q-2.55,3.72-4.84,7.34A56.17,56.17,0,0,1,369,92.73a49.88,49.88,0,0,1,6.55-11.93,101.42,101.42,0,0,1,8.74-10.42,28.84,28.84,0,0,0-7.79,7.78q-3.15,4.64-6.11,9.34l-.32.2a5.79,5.79,0,0,1-.78,2.62c-.57,1.19-1.19,2.47-1.86,3.83s-1.3,2.74-1.92,4.1-1,2.45-1.31,3.27a13.74,13.74,0,0,0,2.35-4,25.46,25.46,0,0,1,2-4.18l.54.29q-4.05,7.69-7.48,15.67T355,125.18a54.62,54.62,0,0,0,3.15-6.42,54.55,54.55,0,0,1,3.14-6.42,57.13,57.13,0,0,1-2.49,6.19C357.83,120.55,356.93,122.56,356.1,124.57Zm7.51-18.06a9.48,9.48,0,0,1-.72,2.28c-.33.71-.63,1.42-.91,2.13a6.77,6.77,0,0,1,.55-2.35A12.8,12.8,0,0,1,363.61,106.51Zm.29-.54a4.71,4.71,0,0,0,.45-1.57c.11-.69.39-1.06.84-1.1l.18.15a3,3,0,0,1-.46,1.49C364.58,105.6,364.24,105.94,363.9,106Zm4.05-7.7-.56,1.25-.64.4.56-1.25Zm1.72-14.45.21.32.27-.71-.2-.32ZM370.28,94l-.48.39,0-.34.29-.54Zm6.77-20.54A12.46,12.46,0,0,0,375.58,75c-.67.8-1.35,1.66-2.06,2.58s-1.34,1.77-1.89,2.55a3.32,3.32,0,0,0-.78,1.69c1-1.34,2-2.76,3-4.28A32.83,32.83,0,0,1,377.05,73.43Zm-4.83-6.19.4.64.38-1.39.47-.39-1,.43Zm.64-2.27.34,0,.44-.73-.35-.13Zm11.7-4.15q-2.54,2.1-5.16,4.05a27.58,27.58,0,0,0-4.77,4.53c-.44.15-.79.67-1,1.54a11,11,0,0,1-.68,1.85,14.17,14.17,0,0,0,2-1.71c1.2-1.13,2.5-2.42,3.9-3.85s2.69-2.78,3.88-4,1.89-2,2.09-2.24Zm-10,57.6a49.82,49.82,0,0,0,6.13-7.29,33.05,33.05,0,0,0,4.32-8.49l-2.29,2.77c-.72.86-1.43,1.78-2.13,2.75a14.83,14.83,0,0,1,1.24-2.24c.45-.67.91-1.42,1.4-2.26l-.33,0a21.77,21.77,0,0,0-1.71,2.71c-.43.84-.89,1.68-1.38,2.51a1,1,0,0,0-.28.71,53,53,0,0,1-3.23,4.56,22.16,22.16,0,0,0-2.88,4.69Zm.07-57.88a6.18,6.18,0,0,0-1.09,1.13l.73.44.81-.42a2.22,2.22,0,0,1,.16-1,2.41,2.41,0,0,0,.16-1l-.08-.84Zm-1,2.48a1.48,1.48,0,0,0,.66-.24l-.51,0Zm1,22.2A19.2,19.2,0,0,0,376,83.14c.63-1.13,1.05-1.71,1.28-1.73l.17,0a9.26,9.26,0,0,1-1.26,2C375.53,84.24,375.05,84.85,374.74,85.22Zm.74-30.54a3.73,3.73,0,0,1-.12,1.46c-.14.41-.29.91-.46,1.49l.4.64a2.15,2.15,0,0,0,.68-.91,3.36,3.36,0,0,1,.51-.9,4.91,4.91,0,0,1,0-.94,4.81,4.81,0,0,0,0-.93,2.6,2.6,0,0,0-.15-.67.4.4,0,0,0-.45-.3Zm3-13.22-.12-1.35.39-1.23.28,1.17ZM379.1,79a3.46,3.46,0,0,1,1-1.53l1.34-1.23Zm1.09,30-.63.57a.5.5,0,0,1,.14-.35.5.5,0,0,0,.14-.36l.78-.75Zm6.08-37.16a9.09,9.09,0,0,1-1.92,2.31,4.82,4.82,0,0,1-2.66,1.52Zm-2.41,30.86a7.83,7.83,0,0,0,1.09-1.12,3.07,3.07,0,0,0,.72-1.43l-.17,0-1.65,2.37Zm1.25,11.63c.22,0,.64-.42,1.25-1.22s1.21-1.64,1.8-2.55,1.14-1.78,1.63-2.62a7.92,7.92,0,0,0,.86-1.78l-1,.26q-1,2-2.19,3.86t-2.36,3.88Zm2.56-18.28-.77.92.51,0ZM397,106.81q-.44.72-1.8,2.55t-2.79,3.92q-1.43,2.09-2.53,3.89a11.57,11.57,0,0,0-1.23,2.33,35.68,35.68,0,0,0,4.81-6A29.25,29.25,0,0,0,397,106.81Zm6.18-5-1.38,1.66,1.17-.28.9-1.27Zm-.79,4.33a.15.15,0,0,1,.15-.19ZM408.85,86l-.44.72-.37-.3.44-.72Z"/><path class="cls-1" d="M410.18,114.94c-.1-1.12-.18-2.25-.23-3.38a12.5,12.5,0,0,1,.3-3.26q1.9-8.68,3.72-16.69a50.42,50.42,0,0,1,6.71-15.77,63.5,63.5,0,0,1,5.83-7.77,54.38,54.38,0,0,1,7.19-6.89,43,43,0,0,1,8.37-5.2,27.71,27.71,0,0,1,9.37-2.57q6.07-.57,9.64,2.08A32.55,32.55,0,0,1,468,62.77a19.46,19.46,0,0,0,2.52-2.2c.94-.94,1.93-1.85,3-2.74a30.31,30.31,0,0,1,3.11-2.33,6.38,6.38,0,0,1,2.87-1.12c.45,0,.68,0,.69.1a1.88,1.88,0,0,1-.24,1.05,1.7,1.7,0,0,0-.28.7c0,.12,0,.17.1.17s.09.05.1.16a4.06,4.06,0,0,1,1.47-.65,13.06,13.06,0,0,1,1.67-.33,3.83,3.83,0,0,0-.36.63,1.58,1.58,0,0,0-.2.62c0,.22.09.33.2.32a.39.39,0,0,0,.25-.11.34.34,0,0,1,.24-.11l1.75.52.48,1.49c-.43,1.51-.91,3-1.46,4.39l-1.65,4.24.61-.74a92.56,92.56,0,0,1-3.42,12.66Q477,86.6,474.62,94t-4,14.24a37.44,37.44,0,0,0-1.19,12,5.54,5.54,0,0,0,.76,2.65,10.74,10.74,0,0,0,1.15,1.34,8.79,8.79,0,0,0,1.1.92,1.75,1.75,0,0,1,.64,1.38,9.64,9.64,0,0,1-5,3.36,29.8,29.8,0,0,1-6,1.24,8.82,8.82,0,0,1-5.55-1,10.78,10.78,0,0,1-3.56-3.58,15.8,15.8,0,0,1-2-5.09,46.86,46.86,0,0,1-.85-5.54c-.09-.9-.16-1.71-.23-2.45a19.3,19.3,0,0,1-.06-2.46c-1.22,1.48-2.62,3.25-4.18,5.33s-3.25,4.13-5.05,6.17a39,39,0,0,1-5.63,5.29,11.56,11.56,0,0,1-5.81,2.5,45.51,45.51,0,0,1-6,.21,11.31,11.31,0,0,1-4.43-1,13.15,13.15,0,0,1-3.74-2.72,32.07,32.07,0,0,1-3.76-4.67c-.23-1.22-.42-2.4-.58-3.52S410.3,116.19,410.18,114.94Zm14.14-34.67-.84.08-.15.18Zm.67-1.94-.28.54.36.31.48-.39Zm1,28.85.22.49.29-.54-.2-.32Zm1.78,6.3a8.57,8.57,0,0,0,1.7-3.73c.31-1.5.63-2.89,1-4.17l-2.74,5.36Zm17.85-53.4A10.55,10.55,0,0,0,440.84,62a40,40,0,0,0-5.08,4,45.56,45.56,0,0,0-4.58,4.77A30.81,30.81,0,0,0,428.09,75a6.54,6.54,0,0,0,1.57-1.34c.73-.74,1.5-1.55,2.33-2.43s1.65-1.74,2.48-2.61a17,17,0,0,1,2-1.89l2.09-1.3c1-.6,1.93-1.23,2.89-1.89s1.84-1.3,2.63-1.94A6.36,6.36,0,0,0,445.6,60.08ZM459.84,70.5a13.39,13.39,0,0,0-8.44,4.44,61,61,0,0,0-7.3,9.36q-3.42,5.34-6.32,10.72a63.27,63.27,0,0,1-5.49,8.68c-.26.93-.61,2-1.06,3.25s-.9,2.52-1.34,3.87-.84,2.63-1.18,3.85a8.78,8.78,0,0,0-.4,3l0,.16q1.5-.3,4.62-3.32a84.59,84.59,0,0,0,6.87-7.62q3.75-4.59,7.66-10.07t7.1-10.62q3.18-5.14,5.19-9.16t1.85-5.71c-.05-.56-.28-.85-.67-.87A8,8,0,0,0,459.84,70.5Zm-26.38-3.68a23.55,23.55,0,0,0-1.79,1.79c-.88.93-1.31,1.51-1.29,1.73Zm23.92,2.89a36.89,36.89,0,0,0-8.68,5.48,42.33,42.33,0,0,0-6.41,7,54.5,54.5,0,0,0-4.94,8.21q-2.14,4.37-4.26,9.16a30.9,30.9,0,0,0,1.79-3.66,32.39,32.39,0,0,1,1.79-3.65,73.21,73.21,0,0,1,4.59-7.41,38.76,38.76,0,0,1,4.45-5.18c1.56-1.5,3.27-3,5.12-4.47S454.86,71.87,457.38,69.71Zm-22.44,7.53a8,8,0,0,0,1.73-1.44c.83-.81,1.72-1.69,2.65-2.63s1.82-1.84,2.64-2.71,1.5-1.56,2-2.06a21.53,21.53,0,0,0-4.91,3.94Q436.91,74.68,434.94,77.24Zm.35,38.61c.34,0,1-.61,2-1.73s2.21-2.5,3.53-4.15l4.27-5.34q2.3-2.85,4.09-5.48t3.06-4.54a8.7,8.7,0,0,0,1.38-2.6l-.19-.15a61.74,61.74,0,0,0-4.3,4.91q-2.44,3-4.93,6.5l-4.9,6.84C437.75,112.36,436.39,114.27,435.29,115.85Zm1-29.54a3.77,3.77,0,0,0,.77-.84,11.26,11.26,0,0,0,.59-1,37.74,37.74,0,0,1,7.19-7.82A45.56,45.56,0,0,0,452.21,69,9,9,0,0,0,448,71.51a51.77,51.77,0,0,0-4.65,4.94c-1.53,1.85-2.95,3.68-4.25,5.51A42.19,42.19,0,0,0,436.29,86.31Zm13.55,23.08a5.83,5.83,0,0,0-1.23,1.39c-.71.92-1.5,2-2.35,3.11s-1.72,2.35-2.57,3.56-1.53,2.13-2,2.74q2.14-2.58,4.11-5.23T449.84,109.39Zm.24-2.92a16.65,16.65,0,0,0-2.74,3.49c-.79,1.32-1.58,2.53-2.39,3.63.31-.37.74-.87,1.31-1.49a25.18,25.18,0,0,0,1.68-2,21.76,21.76,0,0,0,1.43-2.09A6.27,6.27,0,0,0,450.08,106.47Zm.36-5.31-.65.4-.14.35.53.13.62-.57Zm3.52,5c0,.45.12.73.25.83Zm2.43-5a45.56,45.56,0,0,0-1,4.44,34,34,0,0,0-.52,4.55,13.57,13.57,0,0,0,1.21-4.45,36.75,36.75,0,0,1,.68-4.57Zm.76-2.8-.46.56-.12.52Zm11.46-15.87q-1.25,3-2.72,7.32t-2.83,8.94a86,86,0,0,0-2.14,9.05,28.59,28.59,0,0,0-.5,7.45l.08.85a5.64,5.64,0,0,0,.4-2.17,10.54,10.54,0,0,1,.21-2.32,71.24,71.24,0,0,1,3-14.74Q466.36,89.47,468.61,82.45Zm-5-6.34a8.08,8.08,0,0,0-.83,1.18,2.07,2.07,0,0,0-.3,1.31l.9-1.28Zm2.22-1.74c-.23,0-.51.36-.85,1s-.66,1.34-1,2.05-.64,1.42-.92,2.13L462.52,81q.75-1.08,2-3.33A9.39,9.39,0,0,0,465.82,74.37Zm-.32,46a159.85,159.85,0,0,1,3-16.71q1.95-8.27,4.07-16.64-2.64,8.25-4.68,16.44A84.19,84.19,0,0,0,465.5,120.36Zm2.53-.24a179.26,179.26,0,0,1,6.3-26.46q4.17-13,7.88-26.09-1.5,4.05-4.15,11.19T473,93.54q-2.44,7.62-4.08,14.67a36.8,36.8,0,0,0-1.27,11.1l.09,1Zm1.45-39.28a5.07,5.07,0,0,0,.47-1.32,4.43,4.43,0,0,0,.13-1.46l-.71,1.6Zm8.4-23.25a4.94,4.94,0,0,0-2.17,1.48,27.5,27.5,0,0,0-2.29,2.76c-.76,1-1.45,2.1-2.09,3.18a19,19,0,0,1-1.57,2.35l.85-.07q1.81-2.39,3.82-4.7A28.15,28.15,0,0,0,477.88,57.59Zm-6.51,18a4.65,4.65,0,0,0,.95-1.78c.41-1.06.65-1.77.74-2.12l0-.33c-.79.07-1.24.65-1.37,1.74S471.43,75,471.37,75.55Zm3.36,5-.55,1.41.48-.38Zm4-18.76c-.22,0-.53.36-.92,1S477,64.19,476.61,65s-.84,1.63-1.22,2.41-.67,1.34-.87,1.69a14.29,14.29,0,0,0,1.13-1.63q.66-1.08,1.32-2.25c.44-.78.82-1.5,1.16-2.15S478.68,62,478.77,61.76Zm-3.51,17.18-.44.72.2.32.28-.7Zm9.54-20.12a6.62,6.62,0,0,0-1.66,2.28,30.21,30.21,0,0,0-1.45,2.77A36.75,36.75,0,0,0,484.8,58.82Zm.39,2.35c-.19.47-.5,1.4-.93,2.8s-.89,2.13-1.34,2.17Z"/><path class="cls-1" d="M497.9,128.41a11.29,11.29,0,0,1-5.94-.81,9.51,9.51,0,0,1-3.88-3.3,14.94,14.94,0,0,1-2.17-5,39.44,39.44,0,0,1-1-5.7,105.08,105.08,0,0,1,.24-15.76q.74-10.36,2.65-22.8t5-25.49a183.6,183.6,0,0,1,7.32-23.83,74.49,74.49,0,0,1,9.57-17.91q5.37-7.14,12-7.75A7.87,7.87,0,0,1,523,0a9.29,9.29,0,0,0,1.28,0l.21.49-.59.91.36.3a1.62,1.62,0,0,1,.89-.5A6.76,6.76,0,0,1,526.23,1a5.49,5.49,0,0,1,1.81.17c.63.17.93.65.9,1.45a3.75,3.75,0,0,0,2.3,1c.59.28.91.59.94.93a.67.67,0,0,1,0,.43.35.35,0,0,0-.06.26c-.19.36-.56,1-1.1,1.89S529.89,9,529.36,10s-1,1.94-1.44,2.78a4,4,0,0,0-.6,1.75l0,.51c.76-1.54,1.58-3.07,2.46-4.57s1.77-3,2.66-4.42l.84-.07a17.91,17.91,0,0,1-1,3.32c-.58,1.64-1.27,3.44-2.05,5.38s-1.55,3.81-2.29,5.58-1.25,3.07-1.51,3.88a14.65,14.65,0,0,0-.78,2.63c-.15.81-.35,1.68-.61,2.61A89.89,89.89,0,0,1,522.43,38q-1.56,4.23-3,8.62-2.49,8.07-5.17,16.82t-4.9,17.73q-2.23,9-3.69,18A129.78,129.78,0,0,0,504,116.61a3.18,3.18,0,0,0-.07,1.12c0,.39.07.75.1,1.09a3.22,3.22,0,0,0,.5,1.66c.38-4.35.73-8.61,1-12.78A99.17,99.17,0,0,1,507.23,95q3.67-17.19,8.67-34T526,27.42a52.9,52.9,0,0,1,4.12-9.75A46.08,46.08,0,0,0,534,7.94a24.31,24.31,0,0,1-.92,5.71q-.84,3-2,6l-2.25,6q-1.1,2.91-1.85,5.7-1.38,5.41-3.61,12.51t-4.75,14.82c-1.68,5.16-3.37,10.44-5.08,15.88s-3.2,10.68-4.49,15.74a139.39,139.39,0,0,0-2.92,14.4,51.08,51.08,0,0,0-.51,11.87c0,.57.11,1.19.17,1.86a9.57,9.57,0,0,0,.34,1.84c.57,0,1.4-.18,2.52-.4s1.71.12,1.8,1c.06.68-.47,1.43-1.58,2.28a27.25,27.25,0,0,1-3.86,2.4,39.91,39.91,0,0,1-4.25,1.92A12.67,12.67,0,0,1,497.9,128.41Zm-7.57-10q.65-11.46,1.53-23t2.72-22.89q-1,4.33-1.92,9.54t-1.83,10.47c-.59,3.51-1,7-1.25,10.41a57.07,57.07,0,0,0,0,9.36c.09,1,.22,2,.37,3S490.24,117.38,490.33,118.39Zm.65-37,.38.48-.09-1Zm.49-2.09,0,.34c.17-.58.32-1.08.46-1.49a7.54,7.54,0,0,0,.28-1.47l-.47.38Zm.86-5.35a25.32,25.32,0,0,1,.48-4q.46-2.43,1-4.95c.36-1.67.71-3.32,1.07-5s.66-3,.89-4.16c-.24,1-.6,2.38-1.07,4s-.88,3.32-1.23,5-.66,3.38-.91,4.94a16.09,16.09,0,0,0-.24,3.85Zm4.3,44.36c.11,0,.17-.18.2-.52a4.47,4.47,0,0,0,0-.69q-.08-.84-.09-1.86c0-.68,0-1.3-.08-1.87l-.49-3.36a48.14,48.14,0,0,0,.12,6.8l.15,1.52Zm-.4-64.64.33-.2.19-1.55-.15.18Zm2-7.84q1.36-3.54,2.49-6.19t2.34-5.92q1.23-3.27,2.4-6.19l2.08-5.12a22.76,22.76,0,0,1,1.35-2.94,128.87,128.87,0,0,0-4.82,13.22q-2,6.66-3.77,13.45,2-7.5,4.67-14.73a81.85,81.85,0,0,1,6.63-13.89,32.46,32.46,0,0,1,4.07-5.66,20.64,20.64,0,0,0,3.71-5.79,8.35,8.35,0,0,0-5,3.7,54.11,54.11,0,0,0-3.77,6.14l.38-1.4a36.88,36.88,0,0,0-3.35,6.1q-2,4.28-3.92,9.13t-3.47,9.34A60,60,0,0,0,498.23,45.83ZM500,81.74l-.16,0-.31.37.38.47Zm.28-.7a93.51,93.51,0,0,0,2.34-9.58q.92-4.86,2-9.72a45,45,0,0,1,2.42-7.89q1.59-3.89,3.1-7.86t2.67-7.91a31.69,31.69,0,0,0,1.29-8,74.83,74.83,0,0,0-3.86,9.72q-2.4,7-4.63,15.16t-3.85,15.33a59,59,0,0,0-1.69,10.29Zm1.87,36.59c-.11-1.12-.2-2.2-.3-3.21a30.78,30.78,0,0,0-.47-3.19,15,15,0,0,0-.08,1.8q0,.93.09,2a30,30,0,0,0,1,5.35ZM506,83.57q1.93-6.64,3.43-11.64t3.22-11.1q1.74-6.12,3.34-11.72t2.91-9.89q1.3-4.29,1.82-6l-.47.39a199.64,199.64,0,0,0-8,24.74Q509.06,70.87,506,83.57Zm3-64.45c0-.11.09-.29.29-.54C509.11,18.83,509,19,509,19.12Zm.29-.54a12.88,12.88,0,0,1,1.29-2.67Zm14-8.62a43.59,43.59,0,0,0-5.32,9.6q-2,5-3.89,10.32,2.25-5,4.78-9.89A93.81,93.81,0,0,0,523.32,10Zm3.33,6.5c-.23,0-.55.51-1,1.45s-.84,2-1.24,3.18l-1.14,3.34c-.35,1.05-.57,1.76-.65,2.1a4.7,4.7,0,0,0,1.1-1.89c.31-.88.62-1.81.93-2.81s.61-1.95.92-2.89a6.53,6.53,0,0,1,1.08-2.14Z"/><path class="cls-2" d="M328.45,183.09c.12,0,.18.14.2.33a2.29,2.29,0,0,1-.38,1.5l-.35,1.25c.06-.12.22-.38.48-.8s.5-.84.75-1.29.48-.85.68-1.2a2.17,2.17,0,0,0,.29-.64v-.06a1.66,1.66,0,0,0-.49.39l-.42.51-.81-.57a30.44,30.44,0,0,1,4.94-3.67,13.87,13.87,0,0,1,5.81-1.88,3.91,3.91,0,0,1,1.59.18,2.3,2.3,0,0,1,1.26,1l-.39.21a2.4,2.4,0,0,1-.73.36c-.41.16-.85.31-1.32.47l-1.36.45a5.75,5.75,0,0,1-.89.23c-.69.45-1.39,1-2.1,1.54a12.94,12.94,0,0,0-1.9,1.87,8,8,0,0,0-1.31,2.22,5.64,5.64,0,0,0-.34,2.6,3.61,3.61,0,0,0,1,1.95,13.33,13.33,0,0,0,1.58,1.6,22.79,22.79,0,0,0,5.53-1.33,16,16,0,0,0,4.66-2.68,10.92,10.92,0,0,0,3.05-4.13,11.57,11.57,0,0,0,.75-5.76,7,7,0,0,0-1-3.15A13.93,13.93,0,0,0,345.1,172a28.85,28.85,0,0,0-2.63-2.23,24.2,24.2,0,0,1-2.63-2.3,12.88,12.88,0,0,1-2.09-2.69,8.08,8.08,0,0,1-1.05-3.43,2.38,2.38,0,0,1,0-.38,2.19,2.19,0,0,0,0-.44,10,10,0,0,1,.75-2.9,27.16,27.16,0,0,1,1.84-3.82,23.46,23.46,0,0,1,2.34-3.39,3.79,3.79,0,0,1,2.27-1.59v.06l.33-.2a3.67,3.67,0,0,1,1.32-1.41A15.55,15.55,0,0,1,347.9,146a22.85,22.85,0,0,1,2.59-1,9.87,9.87,0,0,1,2-.47,4.75,4.75,0,0,1,2,.28,7.85,7.85,0,0,1,2,1,8.4,8.4,0,0,1,1.6,1.55,6.43,6.43,0,0,1,1,1.71l.07.17a6.51,6.51,0,0,1-.66,2c-.43,1-.94,2-1.52,3.09a29.76,29.76,0,0,1-1.77,2.87c-.6.86-1.06,1.3-1.37,1.33a1.17,1.17,0,0,1,.23-.37l.55-.7.6-.7.4-.44a2.68,2.68,0,0,0-.81.72,9.86,9.86,0,0,0-.67.88l-.66.52a1.69,1.69,0,0,1-.66.42l-.12,0a.23.23,0,0,0-.11,0,1.06,1.06,0,0,1,.16-.45,3,3,0,0,1,.28-.41l-1.13,1a15,15,0,0,1,.76-1.56,5,5,0,0,0,.6-1.43l.15-.24a4.08,4.08,0,0,0-.38.59,7.32,7.32,0,0,1-.51.77l-.55.7a1.22,1.22,0,0,1-.49.39c.65-1.42,1.25-2.85,1.82-4.28s1.11-2.88,1.64-4.33a5,5,0,0,0-3,1.39,14.46,14.46,0,0,0-2.34,2.84,28.75,28.75,0,0,0-1.81,3.38l-1.38,3.05a1.29,1.29,0,0,1-.3.52,1.14,1.14,0,0,1-.5.31l.18.1a.38.38,0,0,1,.26-.05c.1,0,.14.07.11.19l-.27.32-.13.42a4.16,4.16,0,0,1,.12.69c0,.23,0,.46.07.69a2.49,2.49,0,0,0,.87,1.85c.5.38,1.06.77,1.68,1.18a34.27,34.27,0,0,1,3.27,2.47,26,26,0,0,1,3.18,3.2,21.16,21.16,0,0,1,2.5,3.68,10,10,0,0,1,1.21,3.83c0,.46.06.95.07,1.45a5,5,0,0,1-.16,1.42,13.93,13.93,0,0,1-2.63,5.52,17.77,17.77,0,0,1-4.42,4,23.22,23.22,0,0,1-5.51,2.53,30,30,0,0,1-6,1.2,24.86,24.86,0,0,1-4.23,0,14.7,14.7,0,0,1-4.14-.93,8.36,8.36,0,0,1-3.27-2.26,6.73,6.73,0,0,1-1.57-4,7.54,7.54,0,0,1,.3-3,10.54,10.54,0,0,1,1.32-2.75Zm1.31,2.16a.83.83,0,0,0,.13-.42,1.82,1.82,0,0,1,.08-.42.76.76,0,0,0-.14.42A2,2,0,0,1,329.76,185.25Zm1.53-.44.49-1a3.45,3.45,0,0,0-.55.93Zm1.22-1.28v-.06a5.45,5.45,0,0,0-.87,1.66,6.45,6.45,0,0,0-.15,1.88Zm9-29.48a1.52,1.52,0,0,0,.65-.5l.53-.67a21.71,21.71,0,0,1,2.38-2.32c.85-.7,1.72-1.4,2.63-2.11a9.21,9.21,0,0,0,.76-.62,1.83,1.83,0,0,0,.58-.73l-.35.09-.26.26a4.35,4.35,0,0,0-1.55,1c-.76.62-1.54,1.3-2.35,2.06s-1.52,1.49-2.15,2.21a3.87,3.87,0,0,0-1,1.43C341.47,154.11,341.51,154.08,341.5,154.05Zm1.63-2.61a2.56,2.56,0,0,0-.88.87c-.4.53-.67.89-.81,1.1a2.27,2.27,0,0,0,.35-.33,7.52,7.52,0,0,0,.5-.57c.18-.21.34-.42.5-.63S343.06,151.53,343.13,151.44Zm4-.78a3.51,3.51,0,0,1-1.1,1.68,5.86,5.86,0,0,0-1.29,1.52l1.89-2a19.9,19.9,0,0,0,1.76-2.08l-.44.33-.37.38-.07-.11.05-.12-.17,0-.32.38Zm-1,1.15c.11-.05.19-.2.25-.44Zm3,1.93a2.66,2.66,0,0,1,.55-1,10.06,10.06,0,0,1,.8-.8l.86-.78a4.74,4.74,0,0,0,.74-.83,9.33,9.33,0,0,0-3.29,3.19q-1.18,2-2.22,4.09a3.36,3.36,0,0,0,.82-1.25,3.49,3.49,0,0,1,.82-1.24,1.72,1.72,0,0,1,.37-.76A4.56,4.56,0,0,1,349.12,153.74Zm1.69-3.77a3.2,3.2,0,0,0-.86.75q-.65.67-1.35,1.53c-.47.57-.89,1.1-1.25,1.6s-.54.83-.52,1V155c.8-1,1.44-1.75,1.91-2.34l1.33-1.67A11.22,11.22,0,0,0,350.81,150Zm-1.36,34.38c-.07,0-.19.14-.34.41s-.32.55-.5.86-.35.61-.5.9a5.88,5.88,0,0,0-.27.55l.33-.21c.28-.38.55-.77.82-1.18A2.66,2.66,0,0,0,349.45,184.35Zm-.3-.73a3.1,3.1,0,0,0-.36.53,1.46,1.46,0,0,0-.18.57,5.36,5.36,0,0,1,.32-.62A1,1,0,0,0,349.15,183.62Zm3,1.29a1.67,1.67,0,0,0-.18.28,1.17,1.17,0,0,0-.11.33l.26-.31Zm2-28.54a.79.79,0,0,0-.32.38h.06s.07,0,.08,0a.13.13,0,0,1,.09,0Zm1.45,27.52c-.23.49-.48,1-.74,1.45s-.52.95-.75,1.44a1.2,1.2,0,0,0,.49-.46,5.45,5.45,0,0,0,.47-.83c.15-.31.28-.6.39-.88A1.75,1.75,0,0,0,355.6,183.89Zm1.78-.86c-.57,1-1.14,1.95-1.71,2.9a19.86,19.86,0,0,0-1.47,3c.21-.26.5-.63.88-1.14s.75-1,1.11-1.62a14.49,14.49,0,0,0,.89-1.68,2.79,2.79,0,0,0,.31-1.35Zm-2-25.49a1.45,1.45,0,0,1,.23-.43q.23-.37.48-.75c.17-.25.33-.49.49-.71s.27-.35.35-.36a1,1,0,0,1-.2.43l-.46.68c-.17.25-.35.48-.52.69Zm1.6-7.33.19.16.11-.07-.08-.17Zm1.24,30.29a3,3,0,0,0-.51,1.15,6.85,6.85,0,0,1-.33,1.2l0,.12c.26,0,.46-.23.58-.61l.27-.87a2.83,2.83,0,0,1,.09-.89Zm-.16-1.1.13.22,0-.46Z"/><path class="cls-2" d="M360.65,181.09c0-.38-.07-.77-.08-1.16a3.78,3.78,0,0,1,.1-1.12q.65-3,1.28-5.72a17.15,17.15,0,0,1,2.29-5.4,22.1,22.1,0,0,1,2-2.67,19,19,0,0,1,2.47-2.36,14.56,14.56,0,0,1,2.86-1.78,9.61,9.61,0,0,1,3.22-.89,4.72,4.72,0,0,1,3.3.72,11.16,11.16,0,0,1,2.37,2.49,7.24,7.24,0,0,0,.86-.75c.32-.32.66-.63,1-.94a11.79,11.79,0,0,1,1.06-.8,2.19,2.19,0,0,1,1-.38c.15,0,.23,0,.24,0a.61.61,0,0,1-.09.36.81.81,0,0,0-.09.24s0,.06,0,.06,0,0,0,.06a1.3,1.3,0,0,1,.5-.23,4.6,4.6,0,0,1,.57-.11,1.81,1.81,0,0,0-.12.22.55.55,0,0,0-.07.21c0,.08,0,.11.07.11s.07,0,.08,0a.19.19,0,0,1,.09,0l.6.18.16.51a14.83,14.83,0,0,1-.5,1.51c-.19.48-.38,1-.56,1.45l.21-.25a33.23,33.23,0,0,1-1.18,4.34c-.54,1.62-1.09,3.28-1.64,5s-1,3.32-1.38,4.89a12.61,12.61,0,0,0-.41,4.09,1.9,1.9,0,0,0,.26.91,4.89,4.89,0,0,0,.4.46,2.53,2.53,0,0,0,.37.31.61.61,0,0,1,.22.48,3.28,3.28,0,0,1-1.7,1.15,11,11,0,0,1-2.06.43,3.07,3.07,0,0,1-1.9-.35,3.87,3.87,0,0,1-1.22-1.23,5.52,5.52,0,0,1-.69-1.75,16.7,16.7,0,0,1-.29-1.89c0-.31-.06-.59-.08-.84a7.59,7.59,0,0,1,0-.85c-.42.51-.9,1.12-1.43,1.83s-1.12,1.42-1.74,2.11a12.62,12.62,0,0,1-1.93,1.82,3.87,3.87,0,0,1-2,.85,15.59,15.59,0,0,1-2.06.08,4,4,0,0,1-1.52-.36,4.57,4.57,0,0,1-1.29-.93,11.89,11.89,0,0,1-1.28-1.6c-.08-.42-.15-.82-.2-1.2S360.68,181.52,360.65,181.09Zm4.84-11.89-.29,0-.05.06Zm.23-.66-.1.19.13.1.16-.13Zm.34,9.89.07.17.1-.19-.07-.11Zm.61,2.16a2.91,2.91,0,0,0,.58-1.28c.11-.51.22-1,.33-1.43l-.94,1.84Zm6.12-18.31a3.65,3.65,0,0,0-1.64.65,14.75,14.75,0,0,0-1.74,1.36,17.17,17.17,0,0,0-1.57,1.63,11.65,11.65,0,0,0-1.06,1.47,2.28,2.28,0,0,0,.54-.46l.8-.83.85-.9a6.69,6.69,0,0,1,.7-.64l.72-.45c.33-.21.66-.42,1-.65s.63-.44.9-.66A2.33,2.33,0,0,0,372.79,162.28Zm4.88,3.57a4.59,4.59,0,0,0-2.89,1.53,20.42,20.42,0,0,0-2.51,3.21c-.78,1.22-1.5,2.44-2.17,3.67a21.45,21.45,0,0,1-1.88,3,10,10,0,0,1-.36,1.11c-.16.42-.31.87-.46,1.33s-.29.9-.4,1.32a2.79,2.79,0,0,0-.14,1v.06a4.19,4.19,0,0,0,1.58-1.14,31.53,31.53,0,0,0,2.36-2.61q1.28-1.58,2.62-3.46t2.43-3.64c.73-1.17,1.32-2.22,1.78-3.14a4.51,4.51,0,0,0,.64-1.95c0-.2-.1-.29-.23-.3Zm-9.05-1.26c-.11.09-.31.3-.61.62s-.45.51-.44.59Zm8.21,1a13,13,0,0,0-3,1.88,14.28,14.28,0,0,0-2.2,2.4,18.36,18.36,0,0,0-1.69,2.81c-.49,1-1,2-1.46,3.14a11.07,11.07,0,0,0,.61-1.25,10.5,10.5,0,0,1,.62-1.26,23.73,23.73,0,0,1,1.57-2.54,14.07,14.07,0,0,1,1.52-1.77,22.47,22.47,0,0,1,1.76-1.53C375.21,167,376,166.33,376.83,165.58Zm-7.7,2.59a3.07,3.07,0,0,0,.6-.5l.9-.9c.32-.32.63-.63.91-.93s.51-.53.69-.71a7.83,7.83,0,0,0-1.68,1.36A21,21,0,0,0,369.13,168.17Zm.12,13.23c.12,0,.35-.21.7-.59s.76-.86,1.21-1.43l1.47-1.82c.52-.66,1-1.28,1.4-1.88l1.05-1.56a2.91,2.91,0,0,0,.47-.89l-.06,0a22.3,22.3,0,0,0-1.48,1.68c-.56.69-1.12,1.44-1.69,2.23l-1.68,2.34Zm.34-10.13a1.19,1.19,0,0,0,.27-.28l.2-.34a12.8,12.8,0,0,1,2.47-2.68,15.64,15.64,0,0,0,2.52-2.63,3.22,3.22,0,0,0-1.44.86,18.88,18.88,0,0,0-1.59,1.7c-.52.63-1,1.26-1.46,1.88A17.4,17.4,0,0,0,369.59,171.27Zm4.65,7.92s-.18.16-.42.47-.52.67-.81,1.07-.59.8-.88,1.22-.52.73-.7.94c.49-.59,1-1.19,1.41-1.79Zm.08-1a5.55,5.55,0,0,0-.94,1.19,12.7,12.7,0,0,1-.82,1.24l.45-.5a8.29,8.29,0,0,0,.58-.7c.19-.25.35-.49.49-.71A2.37,2.37,0,0,0,374.32,178.19Zm.12-1.82-.22.13,0,.12.18,0,.21-.2Zm1.21,1.69c0,.16,0,.25.09.29Zm.84-1.71c-.15.52-.27,1-.36,1.52a11.1,11.1,0,0,0-.17,1.57,4.82,4.82,0,0,0,.41-1.53,11.88,11.88,0,0,1,.23-1.57Zm.26-1-.16.19,0,.18Zm3.92-5.44c-.28.69-.59,1.53-.93,2.51s-.66,2-1,3.07a29.39,29.39,0,0,0-.73,3.1,9.49,9.49,0,0,0-.17,2.55l0,.29a2.1,2.1,0,0,0,.13-.74,4.56,4.56,0,0,1,.07-.8,23.82,23.82,0,0,1,1-5.05Q379.9,172.36,380.67,170ZM379,167.78a2.92,2.92,0,0,0-.29.4.74.74,0,0,0-.1.45l.31-.44Zm.76-.6c-.08,0-.18.13-.29.35s-.23.46-.34.7-.22.49-.32.73-.15.41-.18.48c.17-.24.39-.62.68-1.14A3.32,3.32,0,0,0,379.72,167.18ZM379.61,183a52.92,52.92,0,0,1,1-5.73c.45-1.89.91-3.79,1.4-5.7-.61,1.88-1.14,3.76-1.61,5.63A28.36,28.36,0,0,0,379.61,183Zm.87-.08a61.06,61.06,0,0,1,2.16-9.07q1.42-4.45,2.7-9l-1.43,3.84c-.6,1.63-1.19,3.32-1.74,5.06s-1,3.42-1.4,5a12.75,12.75,0,0,0-.44,3.81l0,.34ZM381,169.4a1.65,1.65,0,0,0,.16-.46,1.41,1.41,0,0,0,.05-.49l-.24.54Zm2.88-8a1.7,1.7,0,0,0-.74.51,8.5,8.5,0,0,0-.79.94c-.25.36-.5.72-.71,1.09a6.94,6.94,0,0,1-.54.81l.29,0c.41-.54.85-1.08,1.31-1.61A9.63,9.63,0,0,0,383.85,161.43Zm-2.23,6.16a1.57,1.57,0,0,0,.32-.61,6.38,6.38,0,0,0,.26-.73v-.12c-.27,0-.43.23-.47.6S381.64,167.39,381.62,167.59Zm1.15,1.7-.19.48.17-.13Zm1.39-6.43c-.08,0-.18.12-.32.35s-.27.48-.42.77l-.42.82c-.13.27-.23.46-.3.59.11-.13.23-.32.39-.56s.3-.51.45-.78.28-.51.4-.73S384.13,162.94,384.16,162.86Zm-1.2,5.89-.16.25.07.1.1-.24Zm3.26-6.9a2.35,2.35,0,0,0-.57.78c-.26.48-.43.79-.49,1A11.9,11.9,0,0,0,386.22,161.85Zm.14.81c-.07.16-.17.48-.32,1s-.3.73-.46.74Z"/><path class="cls-2" d="M398.48,179.44a.8.8,0,0,1-.18.6,6,6,0,0,1-.53.58,7.41,7.41,0,0,0-.53.57c-.51.75-.9,1.35-1.14,1.8a3.51,3.51,0,0,1-.87,1.07,3.11,3.11,0,0,1-1.32.59,19,19,0,0,1-2.5.35,4.47,4.47,0,0,1-2.28-.34,5.5,5.5,0,0,1-1.75-1.27,5.73,5.73,0,0,1-1.17-1.9,8.54,8.54,0,0,1-.53-2.26,16.29,16.29,0,0,1,.13-3.28c.17-1.38.42-2.87.75-4.48a44.26,44.26,0,0,1,1.33-4.87,36.84,36.84,0,0,1,1.85-4.55,16.75,16.75,0,0,1,2.27-3.51,4.61,4.61,0,0,1,2.62-1.67l.26.27a9.2,9.2,0,0,1-1,2l-1.47,2.15q-.74,1.09-1.32,2.13a4.48,4.48,0,0,0-.6,2,5.55,5.55,0,0,0,1.13-1.63q.71-1.29,1.47-2.73a29.57,29.57,0,0,1,1.54-2.59c.51-.77,1-1.17,1.4-1.21a.8.8,0,0,1,.49.24l-.38.91a2.84,2.84,0,0,1-.24.26.33.33,0,0,0-.11.3V159l.4-.62a1.4,1.4,0,0,1-.15.51c-.11.26-.24.54-.39.85s-.29.59-.45.86a1.66,1.66,0,0,1-.33.47l-.09.3.09.28.42-.8.67-1.28c.22-.45.43-.85.61-1.2s.31-.53.39-.53a.5.5,0,0,1,.59.41,2,2,0,0,1,.1.75l-.14.36.54-.51c0,.27,0,.55,0,.85a5.82,5.82,0,0,0,0,.84.69.69,0,0,0,.09.34l.35-1.26.08.29a25.65,25.65,0,0,1-.95,5.16c-.48,1.68-1,3.36-1.48,5s-1,3.38-1.37,5.09a22.42,22.42,0,0,0-.59,5.25c.88-1,1.74-2.05,2.57-3.1A25,25,0,0,0,399,174a10.65,10.65,0,0,0,1-3.48,20.87,20.87,0,0,1,.81-3.64,30.15,30.15,0,0,1,1.1-2.87,33.29,33.29,0,0,1,1.72-3.43,22.4,22.4,0,0,1,2.11-3.05,5.77,5.77,0,0,1,2.31-1.82,6.26,6.26,0,0,1-.93,2.15c-.62,1.09-1.3,2.33-2,3.72s-1.4,2.8-2,4.21a10.32,10.32,0,0,0-.95,3.65l.06.05.63-2.1c.09-.27.27-.75.54-1.42s.58-1.4,1-2.22.79-1.65,1.25-2.53.91-1.68,1.35-2.41a18.35,18.35,0,0,1,1.23-1.8c.39-.48.71-.74,1-.76a.66.66,0,0,1,.27,0c.1,0,.15.08.16.16a.73.73,0,0,1,0,.32.2.2,0,0,1-.08,0,.12.12,0,0,0-.09,0,.74.74,0,0,0,0,.32.21.21,0,0,0,.08.17l.46-.68a1.84,1.84,0,0,0,.46.54.94.94,0,0,1,.35.61l.24.15q0,.76-.12,1.47c-.06.47-.1,1-.13,1.47l.3-1.14.17-.13,0,.36a27.41,27.41,0,0,1-.69,5.14q-.58,2.51-1.28,5t-1.29,5a22.48,22.48,0,0,0-.58,5.13v1.23a1.49,1.49,0,0,1-.36,1.08l-1,.38a1,1,0,0,1-.68.53,6.36,6.36,0,0,1-.89.14,3.81,3.81,0,0,1-2.1-.3,4,4,0,0,1-1.39-1.15,5.84,5.84,0,0,1-.89-1.7c-.22-.64-.41-1.31-.59-2Zm-7-17.62a2.1,2.1,0,0,0-.33.85l.35-.67Zm.19-.42.08.16.1-.18-.07-.11Zm.87,15,.08.17,0-.35Zm.35-2a7.47,7.47,0,0,1,.34-.73,1.52,1.52,0,0,0,.21-.78l0-.34Zm.43,4.63.18.16.1-.18-.06-.11Zm.18-1.82a2.36,2.36,0,0,0-.13,1.12.87.87,0,0,0,.09.4,3.23,3.23,0,0,0,.12-.57,2,2,0,0,0,0-.55A1.12,1.12,0,0,0,393.55,177.22Zm4.15-15a4.12,4.12,0,0,1-.3,1.17,11.79,11.79,0,0,0-.42,1.18c-.18.59-.46,1.5-.86,2.7s-.78,2.45-1.17,3.73-.72,2.48-1,3.59a8.44,8.44,0,0,0-.36,2.37v.11c.15-.55.28-1.1.4-1.64s.28-1.08.46-1.64a2,2,0,0,0,.35-1,6.44,6.44,0,0,0,0-1.11c.18-.1.29-.2.32-.32l0-.18a5.16,5.16,0,0,0,.39-1.14c.19-.68.41-1.44.67-2.28s.5-1.62.74-2.35a5.07,5.07,0,0,1,.58-1.33h-.06l-.19-.15a2.4,2.4,0,0,0,.39-.48.85.85,0,0,0,.15-.57l-.06-.63Zm-1.9,17.22a.44.44,0,0,0,.08.28Zm2-17.52.14.16a.33.33,0,0,1,0-.18.52.52,0,0,0,0-.11l-.08-.17Zm.26,14.74a3,3,0,0,0,.68-.88c.17-.33.33-.66.49-1a4.08,4.08,0,0,0-.57.76,5.82,5.82,0,0,1-.56.81ZM403,165a12.46,12.46,0,0,0,1.38-2.44c.37-.87.74-1.73,1.13-2.58v-.06q-.71,1.23-1.35,2.49A27.54,27.54,0,0,0,403,165Zm.69,10.49.13.17.1-.19-.13-.1Zm.43-1.55a.89.89,0,0,0,0,.35Zm.2-1.66.08.17,0-.35Zm.16-.77c-.11,0-.1.11,0,.29Zm.71-3c-.06.16-.14.37-.23.63a1.7,1.7,0,0,0-.12.62v.12q.12,0,.21-.63A4.5,4.5,0,0,1,405.22,168.49Zm0-.12a3.94,3.94,0,0,0,.45-1.15c.09-.44.16-.84.21-1.19Zm3-1.91a34.38,34.38,0,0,0-1.71,6.4q-.54,3.25-.88,6.56c.42-2.18.87-4.34,1.33-6.49S407.86,168.63,408.24,166.46Zm-2.28-.67.23-.08.08-.35-.11.06Zm3.8-.53c-.12.29-.3.77-.53,1.45s-.47,1.47-.72,2.35-.5,1.81-.76,2.81-.48,1.94-.67,2.83-.34,1.68-.45,2.35a6.22,6.22,0,0,0-.13,1.41l.06.61a2.9,2.9,0,0,0,.11.6,14.24,14.24,0,0,0,.65-2.39c.16-.83.31-1.66.44-2.49s.26-1.66.38-2.49a16.86,16.86,0,0,1,.54-2.44l.16-.13a3,3,0,0,1,.12-.6c.08-.36.17-.74.27-1.16s.18-.81.24-1.19.09-.58.09-.62l.24-.55Zm-2.51,15.59a1.45,1.45,0,0,0-.09-.32.24.24,0,0,0-.25-.18l-.1.19a1.35,1.35,0,0,0,.31.84l.1-.18Zm1-21.22a1.08,1.08,0,0,0-.3.55l.17-.07Zm.82-1.89a.93.93,0,0,1,0,.27q0,.15-.09.27v.06l.35-.56Zm.79,7.22.24.1-.15-.28-.18-.1Zm0-.93v.06c.08,0,.14-.12.2-.34s.1-.37.13-.45Zm.46-1.33c.16,0,.28-.24.38-.68s.15-.73.18-.89Z"/><path class="cls-2" d="M434.2,161.3a.61.61,0,0,1,.21.39,6,6,0,0,1-.27,2.13,16.77,16.77,0,0,1-.75,2.05,1,1,0,0,1-.11.65,2.28,2.28,0,0,0-.24.61,26.51,26.51,0,0,1-1.79,4.54q-1.32,2.75-2.95,5.61c-1.09,1.91-2.19,3.72-3.32,5.42a38,38,0,0,1-2.9,3.94l-.51.17-.27.26a.25.25,0,0,1,0,.35l-.27.31.23.57-.4,0-.14-.23-.11.07-.67.94-.31-.21-.34.15-.09.25.34,0a.19.19,0,0,0,0,.09s0,0,0,.08-.13.28-.43.48a2.91,2.91,0,0,0-.54.43c-.76.65-1.46,1.2-2.12,1.66a16.73,16.73,0,0,1-2.05,1.18,12,12,0,0,1-2.23.79,18.21,18.21,0,0,1-2.68.42,5.51,5.51,0,0,1-2-.17,5.17,5.17,0,0,1-1.76-.82,5.41,5.41,0,0,1-1.33-1.37,3.9,3.9,0,0,1-.64-1.84,4.5,4.5,0,0,1,.16-1.41,7.41,7.41,0,0,1,.64-1.61,5.4,5.4,0,0,1,1-1.32,2.16,2.16,0,0,1,1.28-.61l.13.1a6.47,6.47,0,0,1-.95,1.43,6.2,6.2,0,0,0-.94,1.49,1.23,1.23,0,0,0,.59-.55c.21-.31.41-.64.61-1a8.89,8.89,0,0,1,.64-1,1.06,1.06,0,0,1,.69-.48l.14.28.27-.2a1.71,1.71,0,0,1,.25.74c0,.38.07.82.12,1.3a4.75,4.75,0,0,0,.29,1.31,2.16,2.16,0,0,0,.71,1,1.82,1.82,0,0,0,1.33.28,3.7,3.7,0,0,0,2.21-1.1,14.71,14.71,0,0,0,1.94-2.34c.6-.9,1.14-1.8,1.64-2.73s.93-1.69,1.3-2.3a7.7,7.7,0,0,1-1.4-2.29,29.2,29.2,0,0,1-1.15-3.2,33.72,33.72,0,0,1-.83-3.33,27.35,27.35,0,0,1-.43-2.73,22.61,22.61,0,0,1,0-4,22.5,22.5,0,0,0,0-4q0-.4-.09-1a4.74,4.74,0,0,0-.21-1.06,2,2,0,0,0-.49-.83,1,1,0,0,0-.84-.27l-.35,0a.33.33,0,0,1-.3-.15.56.56,0,0,0,.13-.42c0-.08,0-.12-.07-.11a2.36,2.36,0,0,0-.4.09q-.29.09-.3-.09a1.31,1.31,0,0,1,.6-1.1,2.35,2.35,0,0,1,1.17-.58,6,6,0,0,1,3,.46,8.32,8.32,0,0,1,2.49,1.63,11.14,11.14,0,0,1,1.89,2.42,11.38,11.38,0,0,1,1.16,2.76.87.87,0,0,0,.07.48c.08.25.18.52.28.83l.32.9a2.75,2.75,0,0,1,.18.68,4.16,4.16,0,0,1,.12.69c0,.23.05.46.07.69a28,28,0,0,1,.12,2.88c0,1,0,1.92,0,2.89a10.72,10.72,0,0,0,1.23-2.24,6.3,6.3,0,0,1,1.4-2.15,11.11,11.11,0,0,1,.54-1.39,13,13,0,0,0,.55-1.39l.16-.13c.21-.64.5-1.42.86-2.33s.7-1.86,1-2.84.58-1.93.79-2.84a8,8,0,0,0,.22-2.36,1.17,1.17,0,0,0-1.1-1.06.19.19,0,0,0,0-.12.2.2,0,0,1,0-.11.18.18,0,0,1,.15-.22.43.43,0,0,0,.27-.23l-.13-.1-.51.11a1,1,0,0,1,.59-.91,2.75,2.75,0,0,1,1-.36,2.19,2.19,0,0,1,1.76.74,9.35,9.35,0,0,1,1.5,2,13.68,13.68,0,0,1,1.07,2.39,13.2,13.2,0,0,1,.53,2l-.18.54-.11.07Zm-27.38,26.88-.22.19h.12l.22-.13Zm1.29-1.81a1.69,1.69,0,0,1,.26-.38Zm7.27,1.65a5.41,5.41,0,0,0,1.28-1,8.28,8.28,0,0,0,1-1.29c.3-.48.6-1,.89-1.43s.58-.91.89-1.33a3.82,3.82,0,0,0,.08-.39,1.29,1.29,0,0,0,0-.38l-.35,0a.72.72,0,0,0-.48.51,3.59,3.59,0,0,1-.49,1c-.3.5-.64,1-1,1.61s-.74,1.13-1.1,1.65S415.52,187.86,415.38,188Zm3.48,1.61-.13-.11-.05.12.13.17Zm.91-1.43-.36-.2,0,.3.37.14Zm.09-1a.38.38,0,0,0,.37.26s.07,0,.08,0a.19.19,0,0,1,.09,0l-.22-.18a.3.3,0,0,0-.21-.07Zm1.3-1-.31.49,0,.3.07.05.4-.68Zm-.17-3.08.26-.32a.48.48,0,0,0,.14-.36Zm.86-17.06a.67.67,0,0,0-.13.48.87.87,0,0,0,.16.39,1,1,0,0,0,0-.41Zm0,7.7-.08-.23a.66.66,0,0,1,0,.27.92.92,0,0,0,0,.26l0,.41h.06Zm.12-4.39a9.12,9.12,0,0,0,0-1.81,1.84,1.84,0,0,0-.15-.45c0,.39.06.76.07,1.13S422,168.94,422,169.32Zm.3,17.71-.37.39-.07-.11v-.12l.33-.21Zm-.39-14.9s-.06.05,0,.12Zm.31-1-.14-.28-.16.19.27.33Zm.14,5.3a.76.76,0,0,0,.3-.24l.24-.28a3.44,3.44,0,0,0-.38.91,2.53,2.53,0,0,0-.09.94l0,.18.48-1,.28-.2a2.48,2.48,0,0,1,.2-.6,1.87,1.87,0,0,1,.39-.51,7.71,7.71,0,0,0,.46-1c.17-.45.41-.68.72-.71l.28-.2.28,0-.29-.09-.1-.4a1.58,1.58,0,0,0,.39-.56c.07-.2.14-.38.18-.54a1.49,1.49,0,0,1,.22-.46.91.91,0,0,1,.55-.31c0-.08-.06-.12-.16-.13h-.26l-.14-.22a1.73,1.73,0,0,1,.35-.67c-.76,1-1.5,2-2.2,3A17.74,17.74,0,0,0,422.35,176.41ZM432,171.3c-.06.17-.15.39-.26.67s-.22.58-.35.88-.26.58-.39.83a2.9,2.9,0,0,1-.36.55q-.53,1.22-1.5,3c-.65,1.19-1.34,2.39-2.09,3.61a38.81,38.81,0,0,1-2.31,3.4,14,14,0,0,1-2.17,2.36l-.13-.11a6,6,0,0,1,.82-.92,5.94,5.94,0,0,0,.82-.92l2.11-3.06a29.94,29.94,0,0,0,1.92-3.16c.67-1.18,1.3-2.4,1.88-3.64s1.21-2.46,1.88-3.65Zm-9.32,13.3-.07-.11-.16.13v.06l.07.11Zm.19-.43a8.05,8.05,0,0,0,1.5-1.77c.63-.91,1.28-1.93,1.93-3s1.26-2.19,1.8-3.26.91-1.83,1.1-2.32a27.06,27.06,0,0,1-1.55,2.48c-.64.92-1.26,1.83-1.88,2.74s-1.19,1.83-1.73,2.73A13.55,13.55,0,0,0,422.9,184.17Zm.17-4.45-.07-.11-.1.19.07.11Zm4-6.37a2.87,2.87,0,0,0-.68.88l.55-.4c-.14.2-.26.4-.38.58a1.11,1.11,0,0,1-.52.43,2.33,2.33,0,0,1-.25,1,2.38,2.38,0,0,1-.69.82,9.67,9.67,0,0,1-.94,1.84,16.38,16.38,0,0,0-1,1.78,17.85,17.85,0,0,0,2.32-3.25c.67-1.19,1.27-2.37,1.83-3.55Zm-3.38,1.36a3.88,3.88,0,0,1-.19.4c-.1.18-.19.28-.27.28Zm0-.17.67-.94-.29.61Zm.9,2.83a.69.69,0,0,0-.41.56l.27-.25Zm.43-4.82a.85.85,0,0,1-.41.62Zm.45-.86.14-.31.13.11-.09.3Zm1.94,1.45.12.05.15-.25-.12-.05Zm.68-6.48.13.16.05-.12-.13-.16Zm5.33,1.43c-.2.41-.39.8-.59,1.19a4.11,4.11,0,0,0-.41,1.24l-.12-.05.18-.54.27-.85c.09-.28.18-.54.28-.78s.18-.37.26-.37Zm.53-6.88v-.11l-.18,0-.1.19.18.1Zm.21,4.82a.42.42,0,0,1-.09.31l-.21.25h-.06Z"/><path class="cls-2" d="M434.64,174.21c0-.38-.07-.77-.08-1.16a4.07,4.07,0,0,1,.1-1.11c.44-2,.86-3.9,1.28-5.73a17.48,17.48,0,0,1,2.29-5.4,23.2,23.2,0,0,1,2-2.67,19.66,19.66,0,0,1,2.47-2.36,14.34,14.34,0,0,1,2.87-1.78,9.47,9.47,0,0,1,3.21-.88,4.71,4.71,0,0,1,3.31.71,11.43,11.43,0,0,1,2.36,2.5,6.6,6.6,0,0,0,.86-.76c.32-.32.66-.63,1-.94a11.88,11.88,0,0,1,1.07-.8,2.24,2.24,0,0,1,1-.38c.16,0,.23,0,.24,0a.72.72,0,0,1-.08.36.62.62,0,0,0-.1.24s0,0,0,0,0,0,0,.06a1.38,1.38,0,0,1,.5-.22,4.64,4.64,0,0,1,.58-.12,1.27,1.27,0,0,0-.13.22.55.55,0,0,0-.07.21c0,.08,0,.11.07.11a.13.13,0,0,0,.09,0s0,0,.08,0l.6.18.16.5a14.06,14.06,0,0,1-.5,1.51c-.19.48-.37,1-.56,1.45l.21-.25a32.81,32.81,0,0,1-1.18,4.34c-.54,1.63-1.09,3.28-1.63,5s-1,3.31-1.39,4.88a12.92,12.92,0,0,0-.41,4.09,1.78,1.78,0,0,0,.27.91,2.67,2.67,0,0,0,.39.46,2.23,2.23,0,0,0,.38.32.6.6,0,0,1,.22.47,3.29,3.29,0,0,1-1.71,1.15,9.47,9.47,0,0,1-2.06.43,3.07,3.07,0,0,1-1.9-.35,3.68,3.68,0,0,1-1.22-1.23,5.37,5.37,0,0,1-.69-1.74,16.53,16.53,0,0,1-.29-1.9c0-.31-.06-.59-.08-.84a7.47,7.47,0,0,1,0-.84c-.42.5-.9,1.11-1.43,1.82s-1.12,1.42-1.73,2.12a13.53,13.53,0,0,1-1.93,1.81,4,4,0,0,1-2,.86,15.37,15.37,0,0,1-2.06.07,4,4,0,0,1-1.52-.35,4.78,4.78,0,0,1-1.29-.93,12,12,0,0,1-1.28-1.61c-.08-.42-.15-.82-.2-1.2S434.68,174.64,434.64,174.21Zm4.84-11.88-.29,0-.05.07Zm.23-.67-.1.19.13.1.16-.13Zm.34,9.89.07.17.1-.18-.07-.11Zm.61,2.16a2.91,2.91,0,0,0,.58-1.28c.11-.51.22-1,.33-1.43l-.93,1.84Zm6.12-18.31a3.73,3.73,0,0,0-1.63.65,15.06,15.06,0,0,0-1.75,1.36,17.13,17.13,0,0,0-1.57,1.63,11.65,11.65,0,0,0-1.06,1.47,2.2,2.2,0,0,0,.55-.45l.79-.84.85-.89a6,6,0,0,1,.7-.65l.72-.45c.33-.2.66-.42,1-.64s.63-.45.9-.67A2.14,2.14,0,0,0,446.78,155.4Zm4.88,3.58a4.53,4.53,0,0,0-2.89,1.52,21,21,0,0,0-2.51,3.21c-.78,1.22-1.5,2.45-2.16,3.67a22.38,22.38,0,0,1-1.89,3,10,10,0,0,1-.36,1.11c-.15.43-.31.87-.46,1.33s-.29.9-.4,1.32a3,3,0,0,0-.14,1v.06a4.13,4.13,0,0,0,1.59-1.14,29.84,29.84,0,0,0,2.36-2.61c.85-1.05,1.73-2.2,2.62-3.45s1.71-2.47,2.44-3.64,1.32-2.23,1.78-3.14a4.44,4.44,0,0,0,.63-2c0-.19-.09-.29-.23-.3A2.31,2.31,0,0,0,451.66,159Zm-9.05-1.26c-.1.09-.31.29-.61.61s-.45.52-.44.59Zm8.21,1a12.33,12.33,0,0,0-3,1.88,14.22,14.22,0,0,0-2.2,2.39,18.86,18.86,0,0,0-1.69,2.81c-.49,1-1,2.05-1.46,3.14a11.07,11.07,0,0,0,.61-1.25,11.16,11.16,0,0,1,.62-1.25,24.35,24.35,0,0,1,1.57-2.54,12.84,12.84,0,0,1,1.53-1.78,22.28,22.28,0,0,1,1.75-1.53C449.2,160.07,450,159.45,450.82,158.71Zm-7.7,2.58a3.07,3.07,0,0,0,.6-.5c.28-.27.59-.57.91-.9s.62-.63.9-.93l.7-.7a7.6,7.6,0,0,0-1.69,1.35C444.05,160.14,443.57,160.7,443.12,161.29Zm.12,13.23c.12,0,.35-.2.71-.59s.75-.86,1.21-1.42l1.46-1.83c.52-.65,1-1.28,1.4-1.88l1.05-1.56a2.8,2.8,0,0,0,.47-.89l-.06,0A22.3,22.3,0,0,0,448,168c-.55.7-1.12,1.44-1.69,2.23l-1.67,2.35C444.08,173.33,443.62,174,443.24,174.52Zm.35-10.12a1.75,1.75,0,0,0,.26-.29,3.79,3.79,0,0,0,.2-.34,13.05,13.05,0,0,1,2.47-2.68,15.27,15.27,0,0,0,2.52-2.63,3.15,3.15,0,0,0-1.43.86A18.85,18.85,0,0,0,446,161c-.52.63-1,1.26-1.45,1.89A12.66,12.66,0,0,0,443.59,164.4Zm4.64,7.91s-.18.16-.42.47-.51.68-.81,1.07l-.87,1.22c-.3.42-.53.73-.71.94.49-.59,1-1.19,1.41-1.79S447.75,173,448.23,172.31Zm.08-1a5.68,5.68,0,0,0-.94,1.2c-.27.45-.54.86-.81,1.24.1-.13.25-.3.44-.51a8.11,8.11,0,0,0,.58-.69c.19-.26.35-.49.49-.72A2.37,2.37,0,0,0,448.31,171.31Zm.12-1.82-.22.14,0,.12.18,0,.21-.2Zm1.21,1.69a.53.53,0,0,0,.09.29Zm.84-1.71c-.15.52-.27,1-.36,1.52a11.1,11.1,0,0,0-.17,1.57,4.82,4.82,0,0,0,.41-1.53,13.81,13.81,0,0,1,.23-1.57Zm.26-.95-.16.19,0,.18Zm3.93-5.45c-.29.69-.6,1.53-.94,2.51s-.66,2-1,3.07a29.39,29.39,0,0,0-.73,3.1,10,10,0,0,0-.17,2.56l0,.28a1.86,1.86,0,0,0,.13-.74,4.45,4.45,0,0,1,.07-.79,25.23,25.23,0,0,1,1-5.06Q453.89,165.48,454.67,163.07ZM453,160.9a3,3,0,0,0-.29.41.7.7,0,0,0-.1.44l.31-.43Zm.76-.6c-.08,0-.17.13-.29.35s-.23.46-.34.7-.22.49-.31.73l-.19.49c.17-.25.4-.63.68-1.14A3.43,3.43,0,0,0,453.71,160.3Zm-.11,15.77a55.47,55.47,0,0,1,1-5.73c.45-1.89.91-3.79,1.4-5.7-.61,1.88-1.14,3.76-1.61,5.63A28.56,28.56,0,0,0,453.6,176.07Zm.87-.08a61.35,61.35,0,0,1,2.16-9.07q1.42-4.46,2.7-8.95c-.34.93-.82,2.21-1.43,3.84s-1.19,3.32-1.74,5.06-1,3.43-1.4,5a12.69,12.69,0,0,0-.44,3.8l0,.35Zm.49-13.47a1.93,1.93,0,0,0,.17-.45,1.77,1.77,0,0,0,0-.5l-.24.55Zm2.88-8a1.76,1.76,0,0,0-.74.51,9.94,9.94,0,0,0-.79.95c-.25.35-.49.71-.71,1.08a6.94,6.94,0,0,1-.54.81l.29,0c.42-.55.85-1.09,1.31-1.61A9.2,9.2,0,0,0,457.84,154.55Zm-2.23,6.16a1.68,1.68,0,0,0,.33-.61c.14-.37.22-.61.25-.73v-.11c-.27,0-.43.22-.47.6S455.63,160.52,455.61,160.71Zm1.15,1.7-.18.49.16-.13Zm1.39-6.43c-.08,0-.18.13-.32.35s-.27.48-.42.77-.29.56-.42.83-.23.46-.3.58a4.27,4.27,0,0,0,.39-.56c.15-.25.3-.5.45-.77l.4-.74A3.93,3.93,0,0,0,458.15,156Zm-1.2,5.89-.15.25.06.11.1-.24Zm3.26-6.9a2.22,2.22,0,0,0-.56.79,8.65,8.65,0,0,0-.5,1A12.52,12.52,0,0,0,460.21,155Zm.14.81c-.06.16-.17.48-.32,1s-.3.73-.46.74Z"/><path class="cls-2" d="M475.16,159.42c-.67,1.23-1.38,2.41-2.15,3.55s-1.55,2.28-2.34,3.4l.53-1.21c-.28.41-.57.88-.89,1.42a7.29,7.29,0,0,0-.71,1.52l-.51.69-.14.43-.54.51a3.62,3.62,0,0,1-.3.82,1.6,1.6,0,0,1-.55.66l-.2.37,0,.23c-.58.84-1.12,1.7-1.62,2.6a7,7,0,0,1-2,2.29v-.17l-.16.19v.11a3.79,3.79,0,0,1-1.45.72.83.83,0,0,1-.45.16,1.33,1.33,0,0,1-1-.38l-.35,0a4.5,4.5,0,0,1-.4-1.54c-.09-.66-.14-1.19-.18-1.62a18.94,18.94,0,0,1,.12-4c.18-1.57.45-3.27.81-5.09s.77-3.7,1.25-5.63,1-3.82,1.46-5.65.95-3.56,1.39-5.18.81-3,1.12-4.22c.09-.35.25-.93.48-1.73s.52-1.63.85-2.48a16.5,16.5,0,0,1,1.05-2.22c.37-.64.75-1,1.13-1l.13.1a2.64,2.64,0,0,1-.17.34.57.57,0,0,0-.12.33.21.21,0,0,0,0,.11.28.28,0,0,1,0,.12l-.17.07-.07.47-.37.39.13.22.36.08.16-.18a5.77,5.77,0,0,1,.41-.95c.21-.43.41-.65.61-.67s.12,0,.12.11,0,.13,0,.17v.12l.3.14.23-.13c.12,0,.23.14.35.34s.22.42.32.65.19.44.27.67a2.21,2.21,0,0,1,.13.51,7,7,0,0,1,0,1.37,8.29,8.29,0,0,0,0,1.32,1.82,1.82,0,0,0,.11.57l.19-1.13.06.05a1.52,1.52,0,0,0-.06.59c0,.2,0,.39.05.58a.55.55,0,0,1-.22.14c-.11,0-.16.11-.16.19a.63.63,0,0,0,.15.36.74.74,0,0,1,.16.43,14.39,14.39,0,0,1-.23,3.43c-.24,1.45-.54,3-.89,4.55s-.72,3.13-1.09,4.62-.64,2.72-.83,3.67c.56-.71,1.25-1.63,2.08-2.76s1.72-2.24,2.67-3.34a24.11,24.11,0,0,1,2.91-2.9,5.29,5.29,0,0,1,2.87-1.37,2.78,2.78,0,0,1,1.8.47,6.65,6.65,0,0,1,1.56,1.4,7.78,7.78,0,0,1,1.13,1.85,5.84,5.84,0,0,1,.52,1.82,9.83,9.83,0,0,1-.26,2.16c-.21,1.08-.5,2.36-.88,3.81s-.78,3-1.22,4.67-.88,3.25-1.28,4.78-.78,2.93-1.13,4.19-.59,2.19-.73,2.78a10.7,10.7,0,0,1,.19-3.87c.31-1.5.69-3.07,1.14-4.68s.94-3.2,1.46-4.75.94-2.86,1.27-3.94c-.58,1.34-1.09,2.71-1.55,4.11s-.87,2.81-1.24,4.21c-.26,1-.52,2.05-.8,3a22.08,22.08,0,0,0-.61,3.1c0,.39-.08.77-.1,1.14s-.06.76-.1,1.15l-.15.89-.25-.21-.35,0-1,.68a3.89,3.89,0,0,1-2.64-1.33,4.71,4.71,0,0,1-1.18-2.75,18.68,18.68,0,0,1,.13-4.24,44.78,44.78,0,0,1,.87-4.72c.38-1.59.79-3.16,1.26-4.7s.9-2.91,1.33-4.12l-1,.91a1.83,1.83,0,0,1,.4-.71,2.88,2.88,0,0,0,.46-.66c-1,1.23-2.07,2.53-3.16,3.91A19,19,0,0,0,471.3,165c.21-.29.49-.71.85-1.25s.72-1.11,1.1-1.7.73-1.15,1.1-1.65A8.09,8.09,0,0,1,475.16,159.42ZM461,175.85a1.73,1.73,0,0,0,.39-.82l.15-.92a106.24,106.24,0,0,1,2.09-12.36q1.38-6.06,2.68-12.24l-1,3.53c-.37,1.39-.77,2.89-1.18,4.48s-.84,3.25-1.26,5-.8,3.36-1.12,4.94-.56,3-.73,4.36a15.22,15.22,0,0,0-.14,3.25Zm2.83,1-.16.19-.07-.17.16-.13ZM466,149.42l.1-.13,0-.41-.06.06Zm2.16,1.2a5.58,5.58,0,0,0-.43,1.35c-.19.74-.38,1.55-.59,2.45s-.41,1.75-.58,2.56-.31,1.38-.4,1.7c.42-1.32.81-2.65,1.18-4A33,33,0,0,0,468.16,150.62Zm-1.23,20.71-.07-.17-.16.25.07.05Zm.65-9.92q.89-3.06,1.45-6.12t1.26-6.16a40.93,40.93,0,0,0-1.53,6.1Q468.22,158.31,467.58,161.41Zm.85,1a19.08,19.08,0,0,0,1.08-3.78c.24-1.34.5-2.65.77-3.92l1.18-5.19a43.24,43.24,0,0,0,.88-5.27l-.13-.17-.35.62a17.81,17.81,0,0,1-.47,3.14c-.25,1.07-.48,2.1-.7,3.1-.37,1.9-.76,3.81-1.19,5.74s-.84,3.84-1.24,5.75Zm.16,1.68a4.65,4.65,0,0,0,.6-.73c.36-.48.8-1.07,1.33-1.76s1.08-1.45,1.68-2.28,1.18-1.63,1.73-2.38,1-1.42,1.45-2,.71-1,.88-1.2a15.69,15.69,0,0,0-1.95,2c-.79.91-1.57,1.87-2.35,2.9s-1.49,2-2.11,3A13.28,13.28,0,0,0,468.59,164.06Zm2-25.51.06.11.1-.24v-.12Zm2,3a.69.69,0,0,1-.09-.34Zm.1,20-.1.12.07.17.1-.18Zm.84-1.07a2.12,2.12,0,0,0-.35.61l.32-.32Zm1.61-2.72a1.58,1.58,0,0,0,.06.26.14.14,0,0,0,.16.13l0-.12v-.12Zm.72.81a.48.48,0,0,1-.14.39,2.89,2.89,0,0,1-.32.29c0-.08.09-.21.17-.39S475.72,158.61,475.84,158.6Zm-.39,12.7a8,8,0,0,1,.24-1.13,3.46,3.46,0,0,0,.13-1.13v0a6.9,6.9,0,0,0-.27,1.13A7.91,7.91,0,0,0,475.45,171.3Zm.93-14.44-.44.33.23-.08Zm.52,5.55.29,0,.21-.25-.13-.11Zm.19,11.48c-.12,0-.11.1,0,.28Zm1.24-6.13c-.23.92-.45,1.85-.68,2.81a25.43,25.43,0,0,0-.49,2.9,4.21,4.21,0,0,0,.24-.9c.12-.55.25-1.17.38-1.84s.26-1.31.38-1.9A6.52,6.52,0,0,0,478.33,167.76Zm-1-6.85.07.17h.06l.27-.26-.19-.1Zm1.22-1.92.2.27-.08-.23Zm3.13,4.2q-1,3.3-2.1,6.85a22,22,0,0,0-1,7,66,66,0,0,1,1.45-7Q481,166.71,481.69,163.19Zm2.42-4.19.17,0,.06-.06-.08-.17-.23,0Zm.09-.83.13.16.05-.18-.2-.21Zm.61-2.86c-.07.44-.14.85-.2,1.25s-.11.8-.15,1.24c.08,0,.14-.13.17-.37s.07-.49.1-.77.06-.54.08-.79a4.72,4.72,0,0,0,0-.5Z"/><path class="cls-2" d="M556,87.5c-4.66.16-26.38,6.19-29.29,7.65s-13.6.58,0-11.09c0,0,10.43-12,29.85-17.22S575.83,86.82,556,87.5Z"/><path class="cls-3" d="M561,97.82s-14.5-8.72-27.14-1.42,8.8,8.74,16,12.1C557.87,112.21,573.78,108,561,97.82Z"/><path class="cls-2" d="M15.35,130.35c3.2-1.13,19.92-1.83,22.4-1.36s9.34-3.21-3.9-9.61a47.1,47.1,0,0,0-26.13-6.77C-7.19,113.36,1.78,135.18,15.35,130.35Z"/><path class="cls-3" d="M15.59,140.67s6.69-11.51,17.76-8.64-2.85,10-6.52,14.86C22.78,152.27,10.61,153,15.59,140.67Z"/></svg>